<svg width="127" height="155" viewBox="0 0 127 155" fill="none" xmlns="http://www.w3.org/2000/svg">
<path d="M90.0096 14.4117C95.2663 16.3899 97.1389 24.6997 90.4011 27.0888C77.3089 31.7255 64.6624 37.4342 52.4886 44.2153C50.5821 45.2777 48.8339 45.3591 47.3782 44.8096C42.7469 43.0677 41.1545 34.9267 47.1765 31.5705C59.3557 24.7787 72.0022 19.07 85.0891 14.444C86.9031 13.8049 88.5755 13.8731 90.0096 14.4117Z" fill="black"/>
<path d="M54.4173 63.6358C54.7548 63.7676 55.1033 63.9311 55.4412 64.1154C63.5408 68.6109 71.951 72.467 80.6135 75.7454C85.2474 77.5053 89.9655 79.0989 94.7415 80.552C94.9289 80.6077 95.1003 80.6684 95.2717 80.7291C102.981 83.6551 97.7529 95.7288 89.5397 93.2396C85.0422 91.8754 80.6292 90.3711 76.2899 88.7213C66.2078 84.8934 56.5048 80.317 47.0266 75.0577C39.7155 71.0009 47.137 60.8747 54.4173 63.6358Z" fill="black"/>
<path d="M29.2707 88.616C30.7126 89.1573 31.9791 90.2316 32.8106 91.9777C38.6787 104.347 42.4663 117.595 44.1323 131.35C44.8804 137.502 38.4801 140.559 34.1058 138.924C32.1635 138.197 30.6253 136.539 30.2952 133.803C28.7689 121.133 25.292 109.218 19.8928 97.8437C16.9294 91.6105 24.1647 86.6915 29.2707 88.616Z" fill="black"/>
</svg>
