<svg width="75" height="182" viewBox="0 0 75 182" fill="none" xmlns="http://www.w3.org/2000/svg">
<mask id="path-1-inside-1_84_294" fill="white">
<path d="M13.4295 6.0449C8.88086 24.1149 10.3172 43.013 17.9628 59.7031C21.8358 68.1371 28.215 77.6034 38.2368 78.7404C45.2539 79.5402 52.8277 75.2918 51.9822 67.4106C51.2647 60.7423 45.9676 55.4634 39.2852 55.1246C31.5622 54.7332 24.1333 59.8369 19.94 66.1762C9.71716 81.5867 14.5327 103.983 21.3022 119.342C29.5549 138.041 44.6581 153.382 63.2994 161.596C60.817 163.498 58.3466 165.385 55.8643 167.288C53.4076 153.691 50.9537 140.121 48.4971 126.524C47.4357 120.599 57.0085 117.997 58.7894 123.772C63.9649 140.545 69.1254 157.307 74.3009 174.08C75.3748 177.545 72.6716 182.387 68.5127 181.439C57.1708 178.892 45.8141 176.335 34.4722 173.789C27.8584 172.293 29.4162 161.632 36.0717 163.136C47.4285 165.693 58.7705 168.239 70.1272 170.797L64.339 178.155C59.1635 161.382 54.0028 144.62 48.8273 127.847C52.259 126.938 55.6907 126.03 59.1075 125.11C61.5762 138.691 64.0181 152.276 66.4748 165.873C67.1941 169.849 62.5097 173.084 59.0398 171.565C38.2262 162.384 21.5794 145.582 12.0006 124.9C2.94714 105.323 -1.76889 76.9008 12.8053 58.0679C19.3627 49.6096 29.8071 43.9124 40.4345 44.4631C50.4177 44.9767 59.0365 52.1766 61.7374 61.7644C64.6403 72.1042 60.3352 82.8037 50.2003 87.4347C38.9594 92.5547 26.5531 88.1828 18.5332 79.9465C9.13946 70.3082 4.08045 56.4436 1.61556 43.2852C-0.753574 30.6469 -0.277015 17.3558 2.88936 4.77203C3.6108 1.92922 5.91555 -0.236503 8.96205 0.108842C11.6091 0.411797 14.1446 3.27127 13.4352 6.09881"/>
</mask>
<path d="M13.4295 6.0449C8.88086 24.1149 10.3172 43.013 17.9628 59.7031C21.8358 68.1371 28.215 77.6034 38.2368 78.7404C45.2539 79.5402 52.8277 75.2918 51.9822 67.4106C51.2647 60.7423 45.9676 55.4634 39.2852 55.1246C31.5622 54.7332 24.1333 59.8369 19.94 66.1762C9.71716 81.5867 14.5327 103.983 21.3022 119.342C29.5549 138.041 44.6581 153.382 63.2994 161.596C60.817 163.498 58.3466 165.385 55.8643 167.288C53.4076 153.691 50.9537 140.121 48.4971 126.524C47.4357 120.599 57.0085 117.997 58.7894 123.772C63.9649 140.545 69.1254 157.307 74.3009 174.08C75.3748 177.545 72.6716 182.387 68.5127 181.439C57.1708 178.892 45.8141 176.335 34.4722 173.789C27.8584 172.293 29.4162 161.632 36.0717 163.136C47.4285 165.693 58.7705 168.239 70.1272 170.797L64.339 178.155C59.1635 161.382 54.0028 144.62 48.8273 127.847C52.259 126.938 55.6907 126.03 59.1075 125.11C61.5762 138.691 64.0181 152.276 66.4748 165.873C67.1941 169.849 62.5097 173.084 59.0398 171.565C38.2262 162.384 21.5794 145.582 12.0006 124.9C2.94714 105.323 -1.76889 76.9008 12.8053 58.0679C19.3627 49.6096 29.8071 43.9124 40.4345 44.4631C50.4177 44.9767 59.0365 52.1766 61.7374 61.7644C64.6403 72.1042 60.3352 82.8037 50.2003 87.4347C38.9594 92.5547 26.5531 88.1828 18.5332 79.9465C9.13946 70.3082 4.08045 56.4436 1.61556 43.2852C-0.753574 30.6469 -0.277015 17.3558 2.88936 4.77203C3.6108 1.92922 5.91555 -0.236503 8.96205 0.108842C11.6091 0.411797 14.1446 3.27127 13.4352 6.09881" fill="black"/>
<path d="M17.9628 59.7031L17.054 60.1204L17.0536 60.1196L17.9628 59.7031ZM38.2368 78.7404L38.3495 77.7468L38.3501 77.7468L38.2368 78.7404ZM51.9822 67.4106L52.9764 67.3037L52.9765 67.304L51.9822 67.4106ZM39.2852 55.1246L39.3358 54.1258L39.3359 54.1258L39.2852 55.1246ZM19.94 66.1762L20.7741 66.7279L20.7733 66.729L19.94 66.1762ZM21.3022 119.342L20.3874 119.745L20.3872 119.745L21.3022 119.342ZM63.2994 161.596L63.7026 160.681L65.2485 161.362L63.9076 162.389L63.2994 161.596ZM55.8643 167.288L56.4726 168.082L55.1716 169.079L54.8802 167.466L55.8643 167.288ZM48.4971 126.524L47.513 126.702L47.5127 126.701L48.4971 126.524ZM58.7894 123.772L57.8338 124.067L57.8338 124.067L58.7894 123.772ZM74.3009 174.08L73.3458 174.376L73.3454 174.375L74.3009 174.08ZM68.5127 181.439L68.7317 180.463L68.7351 180.464L68.5127 181.439ZM34.4722 173.789L34.2532 174.764L34.2517 174.764L34.4722 173.789ZM36.0717 163.136L35.852 164.111L35.8513 164.111L36.0717 163.136ZM70.1272 170.797L70.3469 169.822L71.893 170.17L70.9132 171.415L70.1272 170.797ZM64.339 178.155L65.125 178.774L63.9458 180.273L63.3834 178.45L64.339 178.155ZM48.8273 127.847L47.8717 128.142L47.5647 127.147L48.5713 126.88L48.8273 127.847ZM59.1075 125.11L58.8475 124.144L59.897 123.861L60.0914 124.931L59.1075 125.11ZM66.4748 165.873L65.4907 166.051L65.4907 166.051L66.4748 165.873ZM59.0398 171.565L58.6388 172.481L58.6362 172.48L59.0398 171.565ZM12.0006 124.9L11.0932 125.32L11.093 125.32L12.0006 124.9ZM12.8053 58.0679L12.0144 57.4559L12.015 57.4552L12.8053 58.0679ZM40.4345 44.4631L40.3831 45.4618L40.3827 45.4618L40.4345 44.4631ZM61.7374 61.7644L62.7 61.4933L62.7002 61.4941L61.7374 61.7644ZM50.2003 87.4347L50.6159 88.3442L50.6149 88.3447L50.2003 87.4347ZM18.5332 79.9465L19.2493 79.2485L19.2496 79.2488L18.5332 79.9465ZM1.61556 43.2852L2.59844 43.101L2.59846 43.1011L1.61556 43.2852ZM2.88936 4.77203L1.91959 4.52801L1.92009 4.52605L2.88936 4.77203ZM8.96205 0.108842L9.07469 -0.884795L9.07576 -0.884672L8.96205 0.108842ZM13.4295 6.0449L14.3992 6.28901C9.90288 24.1514 11.3266 42.8154 18.8719 59.2866L17.9628 59.7031L17.0536 60.1196C9.30783 43.2107 7.85885 24.0785 12.4597 5.8008L13.4295 6.0449ZM17.9628 59.7031L18.8715 59.2858C20.7853 63.4532 23.2951 67.8215 26.5244 71.2751C29.748 74.7224 33.6434 77.2128 38.3495 77.7468L38.2368 78.7404L38.1241 79.734C32.8083 79.1309 28.5033 76.3197 25.0636 72.6411C21.6296 68.9687 19.0133 64.387 17.054 60.1204L17.9628 59.7031ZM38.2368 78.7404L38.3501 77.7468C41.639 78.1217 45.0288 77.3057 47.468 75.5234C49.8726 73.7664 51.369 71.0696 50.9879 67.5173L51.9822 67.4106L52.9765 67.304C53.4409 71.6328 51.5731 75.0008 48.6479 77.1383C45.7573 79.2505 41.8517 80.1589 38.1236 79.734L38.2368 78.7404ZM51.9822 67.4106L50.9879 67.5176C50.3199 61.3095 45.3979 56.4358 39.2346 56.1233L39.2852 55.1246L39.3359 54.1258C46.5373 54.491 52.2094 60.175 52.9764 67.3037L51.9822 67.4106ZM39.2852 55.1246L39.2346 56.1233C31.9721 55.7553 24.8399 60.5813 20.7741 66.7279L19.94 66.1762L19.106 65.6245C23.4267 59.0926 31.1523 53.7112 39.3358 54.1258L39.2852 55.1246ZM19.94 66.1762L20.7733 66.729C15.8282 74.1836 14.4844 83.3852 15.2457 92.697C16.0066 102.004 18.8652 111.333 22.2173 118.938L21.3022 119.342L20.3872 119.745C16.9698 111.992 14.0358 102.443 13.2523 92.8599C12.4692 83.2812 13.829 73.5793 19.1067 65.6234L19.94 66.1762ZM21.3022 119.342L22.2171 118.938C30.3717 137.415 45.2957 152.57 63.7026 160.681L63.2994 161.596L62.8961 162.511C44.0205 154.194 28.7381 138.667 20.3874 119.745L21.3022 119.342ZM63.2994 161.596L63.9076 162.389C62.6661 163.341 61.4276 164.289 60.1895 165.236C58.9513 166.183 57.7134 167.131 56.4726 168.082L55.8643 167.288L55.256 166.494C56.4975 165.543 57.736 164.595 58.9741 163.648C60.2124 162.7 61.4502 161.753 62.6911 160.802L63.2994 161.596ZM55.8643 167.288L54.8802 167.466C53.6519 160.667 52.4243 153.876 51.1966 147.084C49.969 140.292 48.7413 133.501 47.513 126.702L48.4971 126.524L49.4811 126.347C50.7095 133.145 51.9371 139.937 53.1647 146.728C54.3924 153.52 55.62 160.312 56.8483 167.11L55.8643 167.288ZM48.4971 126.524L47.5127 126.701C46.8601 123.057 49.5191 120.549 52.3171 119.795C53.7352 119.413 55.2981 119.434 56.6682 120.01C58.0652 120.598 59.2103 121.743 59.745 123.477L58.7894 123.772L57.8338 124.067C57.478 122.913 56.7586 122.218 55.8931 121.854C55.0006 121.479 53.9027 121.439 52.8376 121.726C50.6694 122.31 49.0727 124.066 49.4814 126.348L48.4971 126.524ZM58.7894 123.772L59.7449 123.477C62.3327 131.864 64.9168 140.248 67.5008 148.632C70.0848 157.015 72.6688 165.399 75.2565 173.786L74.3009 174.08L73.3454 174.375C70.7576 165.988 68.1735 157.604 65.5895 149.221C63.0055 140.837 60.4215 132.453 57.8338 124.067L58.7894 123.772ZM74.3009 174.08L75.2561 173.784C75.895 175.845 75.4056 178.239 74.1899 179.986C72.9518 181.764 70.8553 182.999 68.2903 182.414L68.5127 181.439L68.7351 180.464C70.3291 180.827 71.6636 180.114 72.5483 178.843C73.4555 177.54 73.7807 175.78 73.3458 174.376L74.3009 174.08ZM68.5127 181.439L68.2937 182.414C62.6225 181.141 56.9477 179.865 51.2731 178.589C45.5984 177.313 39.924 176.037 34.2532 174.764L34.4722 173.789L34.6913 172.813C40.3624 174.086 46.0372 175.362 51.7118 176.638C57.3865 177.914 63.061 179.19 68.7317 180.463L68.5127 181.439ZM34.4722 173.789L34.2517 174.764C30.2987 173.87 28.8577 170.222 29.3068 167.191C29.5329 165.664 30.2418 164.184 31.4457 163.185C32.6777 162.164 34.3446 161.72 36.2921 162.16L36.0717 163.136L35.8513 164.111C34.471 163.799 33.4474 164.124 32.7222 164.725C31.9688 165.35 31.4537 166.346 31.2852 167.484C30.9449 169.781 32.032 172.212 34.6928 172.813L34.4722 173.789ZM36.0717 163.136L36.2914 162.16C41.9696 163.439 47.6441 164.715 53.3188 165.991C58.9935 167.267 64.6684 168.543 70.3469 169.822L70.1272 170.797L69.9075 171.773C64.2293 170.494 58.5548 169.218 52.8801 167.942C47.2054 166.666 41.5306 165.39 35.852 164.111L36.0717 163.136ZM70.1272 170.797L70.9132 171.415L65.125 178.774L64.339 178.155L63.553 177.537L69.3412 170.179L70.1272 170.797ZM64.339 178.155L63.3834 178.45C60.7956 170.063 58.2115 161.679 55.6275 153.296C53.0434 144.912 50.4594 136.528 47.8717 128.142L48.8273 127.847L49.7828 127.552C52.3706 135.939 54.9547 144.323 57.5388 152.707C60.1228 161.09 62.7068 169.474 65.2945 177.861L64.339 178.155ZM48.8273 127.847L48.5713 126.88C52.0034 125.971 55.433 125.063 58.8475 124.144L59.1075 125.11L59.3676 126.075C55.9483 126.996 52.5145 127.905 49.0832 128.813L48.8273 127.847ZM59.1075 125.11L60.0914 124.931C62.5602 138.513 65.0024 152.1 67.4588 165.695L66.4748 165.873L65.4907 166.051C63.0338 152.453 60.5922 138.869 58.1237 125.288L59.1075 125.11ZM66.4748 165.873L67.4588 165.695C67.9021 168.145 66.6654 170.3 64.9213 171.585C63.1875 172.862 60.7726 173.415 58.6388 172.481L59.0398 171.565L59.4407 170.649C60.7769 171.234 62.4392 170.929 63.7352 169.974C65.021 169.027 65.7668 167.577 65.4907 166.051L66.4748 165.873ZM59.0398 171.565L58.6362 172.48C37.5905 163.196 20.7697 146.213 11.0932 125.32L12.0006 124.9L12.908 124.48C22.3891 144.951 38.8618 161.571 59.4434 170.65L59.0398 171.565ZM12.0006 124.9L11.093 125.32C6.52174 115.435 3.03867 103.307 2.54343 91.246C2.04818 79.1853 4.54004 67.1144 12.0144 57.4559L12.8053 58.0679L13.5961 58.6799C6.49635 67.8543 4.05914 79.411 4.54174 91.1639C5.02434 102.917 8.42604 114.788 12.9083 124.48L12.0006 124.9ZM12.8053 58.0679L12.015 57.4552C18.7353 48.7868 29.475 42.8939 40.4862 43.4644L40.4345 44.4631L40.3827 45.4618C30.1393 44.931 19.9901 50.4324 13.5956 58.6806L12.8053 58.0679ZM40.4345 44.4631L40.4858 43.4644C50.9174 44.0011 59.8883 51.5123 62.7 61.4933L61.7374 61.7644L60.7749 62.0356C58.1848 52.841 49.918 45.9523 40.3831 45.4618L40.4345 44.4631ZM61.7374 61.7644L62.7002 61.4941C65.725 72.2681 61.2359 83.4917 50.6159 88.3442L50.2003 87.4347L49.7847 86.5251C59.4346 82.1158 63.5556 71.9403 60.7747 62.0347L61.7374 61.7644ZM50.2003 87.4347L50.6149 88.3447C38.8817 93.6889 26.0385 89.0877 17.8167 80.6441L18.5332 79.9465L19.2496 79.2488C27.0677 87.2779 39.0371 91.4204 49.7858 86.5246L50.2003 87.4347ZM18.5332 79.9465L17.817 80.6444C8.22661 70.8043 3.11429 56.7171 0.632653 43.4693L1.61556 43.2852L2.59846 43.1011C5.04662 56.1701 10.0523 69.8121 19.2493 79.2485L18.5332 79.9465ZM1.61556 43.2852L0.632677 43.4694C-1.76387 30.6849 -1.28098 17.2477 1.91959 4.52801L2.88936 4.77203L3.85913 5.01605C0.726951 17.464 0.256722 30.6089 2.59844 43.101L1.61556 43.2852ZM2.88936 4.77203L1.92009 4.52605C2.72851 1.3405 5.39851 -1.30152 9.07469 -0.884794L8.96205 0.108842L8.84941 1.10248C6.4326 0.828513 4.4931 2.51795 3.85864 5.01801L2.88936 4.77203ZM8.96205 0.108842L9.07576 -0.884672C10.7014 -0.698614 12.2256 0.253837 13.2412 1.53625C14.2624 2.82564 14.8524 4.55955 14.4051 6.34217L13.4352 6.09881L12.4652 5.85545C12.7274 4.81053 12.4043 3.70093 11.6734 2.77797C10.9369 1.84802 9.86972 1.21925 8.84834 1.10236L8.96205 0.108842Z" fill="black" mask="url(#path-1-inside-1_84_294)"/>
</svg>
