<svg width="1922" height="1400" viewBox="0 0 1922 1400" fill="none" xmlns="http://www.w3.org/2000/svg">
<path opacity="0.1" d="M780.37 707.61L779.86 708.57L779.17 709.2L778.15 709.64L777.08 709.72L776.12 709.48L775.17 708.88L774.61 708.13L774.31 707.15L774.4 706.2L774.87 705.33L775.67 704.61L776.65 704.19L777.55 704.13L778.8 704.43L779.61 704.96L780.23 705.77L780.5 706.73L780.41 707.62H780.38L780.37 707.61ZM-179 82.21L775.38 702.25L-179 283.01V470.08L773.25 703.05L-179 583.32V772.3L772.48 704.49L-179 913.89V1102.09L771.84 706.18L-179 1275.73V1399.58H22.67L771.85 707.99L218.74 1399.57H408.68L772.59 709.63L544.49 1399.59H702.62L773.91 710.89L809.09 1399.59H976.72L775.65 711.81L1105.76 1399.57H1288.49L777.49 711.94L1492.16 1399.57H1794.05L779.55 711.69L1993.13 1265.1V1033.53L781.07 710.71L1993.13 836.47V624.93L782.29 709.33L1993.13 462.05V229.15L1992.21 205.52L783 707.6L1959.98 0.019989H1573.12L782.79 705.95L1353.7 0.019989H1151.16L782.19 704.11L1018.81 0H856.32L780.86 702.94L741.84 0H583.39L779.13 702.07L450.67 0.00999451H237.64L777.15 701.79L53.86 0H-179V82.19V82.21Z" fill="#0A88C6"/>
</svg>
