<svg width="49" height="25" viewBox="0 0 49 25" fill="none" xmlns="http://www.w3.org/2000/svg">
<path d="M29.5428 21.7347C28.7396 21.5734 27.9702 21.2749 27.2684 20.8523C26.7558 20.5443 26.3185 20.1256 25.9885 19.6268C25.6435 19.138 25.4131 18.5777 25.3144 17.9876C25.1776 17.18 25.1811 16.3548 25.3246 15.5484C25.5159 14.1987 25.5794 13.7951 26.221 10.4049C26.8625 7.01473 26.9518 6.61745 27.2652 5.28983C27.4273 4.48721 27.7257 3.71829 28.1474 3.01642C28.4559 2.50379 28.8746 2.0663 29.3733 1.73574C29.8623 1.39119 30.4227 1.16109 31.0127 1.06248C31.8204 0.925518 32.6457 0.928778 33.4523 1.07211C34.8022 1.26417 35.2065 1.32778 38.5948 1.96897C41.9832 2.61016 42.3823 2.69985 43.7099 3.01321C44.5127 3.1753 45.2819 3.47373 45.9839 3.89556C46.4969 4.20317 46.9342 4.62195 47.2638 5.12105C47.6081 5.61037 47.8382 6.17068 47.9373 6.76071C48.0743 7.56843 48.0711 8.39372 47.9278 9.20035C47.7356 10.5509 47.6722 10.9541 47.0309 14.3433C46.3895 17.7324 46.3012 18.131 45.9866 19.4583C45.8246 20.2613 45.5261 21.0305 45.1041 21.7325C44.7893 22.24 44.3717 22.6759 43.8783 23.0122C43.3848 23.3485 42.8264 23.5778 42.239 23.6853C41.4313 23.8223 40.606 23.8191 39.7994 23.6758C38.4501 23.4839 38.0456 23.4202 34.6564 22.7789C31.2673 22.1375 30.8686 22.0498 29.5426 21.7349" fill="url(#paint0_radial_138_5)"/>
<path d="M29.5428 21.7347C28.7396 21.5734 27.9702 21.2749 27.2684 20.8523C26.7558 20.5443 26.3185 20.1256 25.9885 19.6268C25.6435 19.138 25.4131 18.5777 25.3144 17.9876C25.1776 17.18 25.1811 16.3548 25.3246 15.5484C25.5159 14.1987 25.5794 13.7951 26.221 10.4049C26.8625 7.01473 26.9518 6.61745 27.2652 5.28983C27.4273 4.48721 27.7257 3.71829 28.1474 3.01642C28.4559 2.50379 28.8746 2.0663 29.3733 1.73574C29.8623 1.39119 30.4227 1.16109 31.0127 1.06248C31.8204 0.925518 32.6457 0.928778 33.4523 1.07211C34.8022 1.26417 35.2065 1.32778 38.5948 1.96897C41.9832 2.61016 42.3823 2.69985 43.7099 3.01321C44.5127 3.1753 45.2819 3.47373 45.9839 3.89556C46.4969 4.20317 46.9342 4.62195 47.2638 5.12105C47.6081 5.61037 47.8382 6.17068 47.9373 6.76071C48.0743 7.56843 48.0711 8.39372 47.9278 9.20035C47.7356 10.5509 47.6722 10.9541 47.0309 14.3433C46.3895 17.7324 46.3012 18.131 45.9866 19.4583C45.8246 20.2613 45.5261 21.0305 45.1041 21.7325C44.7893 22.24 44.3717 22.6759 43.8783 23.0122C43.3848 23.3485 42.8264 23.5778 42.239 23.6853C41.4313 23.8223 40.606 23.8191 39.7994 23.6758C38.4501 23.4839 38.0456 23.4202 34.6564 22.7789C31.2673 22.1375 30.8686 22.0498 29.5426 21.7349" fill="url(#paint1_radial_138_5)"/>
<path d="M34.0625 11.9346C34.159 11.4249 34.4045 10.9553 34.7679 10.5851C35.1313 10.2149 35.5963 9.96085 36.1041 9.85496C36.6119 9.74907 37.1397 9.79615 37.6207 9.99023C38.1018 10.1843 38.5145 10.5167 38.8066 10.9453C39.0987 11.3739 39.2572 11.8796 39.262 12.3983C39.2668 12.917 39.1176 13.4255 38.8334 13.8594C38.5492 14.2933 38.1427 14.6332 37.6653 14.8361C37.1879 15.039 36.661 15.0958 36.1514 14.9993C35.468 14.8699 34.864 14.4742 34.4723 13.8995C34.0805 13.3248 33.9331 12.618 34.0625 11.9346ZM32.6693 11.6709C32.5207 12.4561 32.6083 13.2676 32.921 14.003C33.2336 14.7384 33.7573 15.3645 34.4259 15.8022C35.0944 16.24 35.8777 16.4696 36.6767 16.4622C37.4758 16.4547 38.2547 16.2105 38.9149 15.7604C39.5752 15.3103 40.0871 14.6745 40.386 13.9334C40.6849 13.1923 40.7573 12.3792 40.5941 11.597C40.4309 10.8148 40.0394 10.0985 39.4692 9.53874C38.8989 8.979 38.1754 8.60094 37.3903 8.45236C36.869 8.35368 36.3333 8.35866 35.8139 8.467C35.2945 8.57535 34.8015 8.78494 34.3632 9.08381C33.9248 9.38269 33.5495 9.76499 33.2589 10.2089C32.9683 10.6528 32.7679 11.1496 32.6693 11.6709ZM40.6192 8.90046C40.5844 9.08392 40.6048 9.27358 40.6778 9.44546C40.7508 9.61734 40.8731 9.76371 41.0293 9.86606C41.1855 9.96842 41.3685 10.0222 41.5552 10.0205C41.7419 10.0189 41.924 9.96186 42.0783 9.85674C42.2327 9.75162 42.3524 9.6031 42.4223 9.42996C42.4922 9.25681 42.5092 9.06682 42.4712 8.88401C42.4331 8.70119 42.3417 8.53378 42.2085 8.40292C42.0753 8.27205 41.9062 8.18363 41.7228 8.14883C41.4768 8.1024 41.2225 8.15549 41.0157 8.29643C40.8088 8.43738 40.6664 8.65465 40.6197 8.90054M32.3253 18.1241C31.8361 18.0259 31.3674 17.8443 30.9398 17.5872C30.6307 17.3956 30.3651 17.1413 30.1602 16.8409C29.9553 16.5404 29.8155 16.2003 29.7499 15.8426C29.6667 15.3506 29.6689 14.848 29.7564 14.3567C29.873 13.5348 29.912 13.2886 30.3027 11.2241C30.6934 9.15967 30.7477 8.91701 30.9388 8.1083C31.0375 7.61925 31.2191 7.15067 31.4757 6.72281C31.6673 6.41358 31.9217 6.14793 32.2222 5.94301C32.5228 5.73808 32.863 5.59841 33.2209 5.53302C33.7129 5.44983 34.2155 5.45202 34.7068 5.53948C35.5287 5.65613 35.7749 5.69512 37.8386 6.08563C39.9022 6.47614 40.1457 6.53047 40.9544 6.72195C41.4434 6.82066 41.912 7.00224 42.3398 7.25885C42.6491 7.4505 42.9147 7.70481 43.1196 8.0054C43.3246 8.30599 43.4642 8.64618 43.5296 9.00405C43.6128 9.49604 43.6106 9.99867 43.5232 10.4899C43.4063 11.3131 43.3675 11.5581 42.9768 13.6227C42.5861 15.6874 42.5324 15.93 42.3407 16.7386C42.2422 17.2277 42.0606 17.6963 41.8038 18.124C41.6121 18.4331 41.3577 18.6986 41.0572 18.9034C40.7566 19.1082 40.4165 19.2478 40.0587 19.3132C39.5668 19.3964 39.0641 19.3942 38.5729 19.3068C37.7509 19.1901 37.5047 19.1511 35.4401 18.7604C33.3754 18.3697 33.1328 18.316 32.3252 18.1245M34.9061 4.13534C34.2623 4.02657 33.6046 4.02788 32.9612 4.13922C32.41 4.24061 31.8861 4.45607 31.423 4.77176C30.96 5.08746 30.568 5.49643 30.2722 5.97246C29.9335 6.53072 29.692 7.14241 29.558 7.78148C29.3638 8.59849 29.3054 8.86046 28.9081 10.96C28.5108 13.0595 28.4697 13.3246 28.3516 14.1562C28.2429 14.8001 28.2442 15.4577 28.3555 16.1011C28.4569 16.6523 28.6724 17.1762 28.9881 17.6393C29.3038 18.1024 29.7127 18.4943 30.1888 18.7901C30.747 19.1288 31.3587 19.3703 31.9978 19.5044C32.8153 19.698 33.0767 19.757 35.1763 20.1543C37.2758 20.5516 37.5409 20.5926 38.3725 20.7107C39.0164 20.8194 39.674 20.8181 40.3174 20.7068C40.8686 20.6054 41.3925 20.39 41.8556 20.0743C42.3186 19.7586 42.7106 19.3496 43.0064 18.8736C43.3454 18.3155 43.5869 17.7037 43.7207 17.0646C43.9143 16.2468 43.9726 15.9855 44.3699 13.8859C44.7673 11.7864 44.8083 11.5213 44.927 10.6898C45.0358 10.046 45.0345 9.38835 44.9231 8.74493C44.8217 8.19384 44.6063 7.67 44.2907 7.20697C43.9752 6.74394 43.5663 6.35192 43.0905 6.05604C42.5323 5.71716 41.9206 5.47564 41.2815 5.34178C40.4642 5.14803 40.2025 5.08921 38.1034 4.69198C36.0042 4.29475 35.7386 4.25356 34.9065 4.13542" fill="white"/>
<path d="M11.4385 15.1496C11.3698 15.1555 11.3991 15.1536 11.4385 15.1496V15.1496ZM17.4099 14.2372C16.4771 13.9809 15.5606 13.6697 14.6701 13.2998C14.4545 13.2105 14.238 13.1172 14.0253 13.0211C13.9293 12.9771 13.8312 12.9335 13.7348 12.8876C13.7255 12.8833 13.7137 12.8775 13.6994 12.8702C13.6498 12.8454 13.6006 12.8226 13.5509 12.7979C13.1055 12.581 12.6694 12.3479 12.2414 12.1027C11.7797 11.8378 11.111 11.916 10.8116 12.3976C10.5014 12.8979 10.6471 13.4399 11.0974 13.7834C11.7016 14.2453 12.3452 14.6415 13.0221 14.9732C12.5128 15.0433 12.0052 15.1006 11.4926 15.1446C11.4865 15.1459 11.4804 15.1471 11.4739 15.1464C11.3926 15.1529 11.3108 15.1574 11.227 15.1623C11.0806 15.1719 10.9354 15.1772 10.7881 15.1829C10.481 15.1947 10.1743 15.1983 9.86637 15.196C9.30136 15.191 8.73755 15.1612 8.17781 15.0996C7.937 15.0731 7.69741 15.0423 7.46025 15.0027C7.36181 14.988 7.26296 14.9714 7.16574 14.9523C7.15679 14.95 7.14581 14.9482 7.13442 14.9444C7.05225 14.9263 6.96845 14.9107 6.88628 14.8926C6.4026 14.7886 5.92462 14.6608 5.45354 14.5048C5.22574 14.4283 5.00118 14.347 4.77744 14.2594C4.66638 14.2144 4.55532 14.1693 4.44589 14.1219C4.40155 14.1023 4.35762 14.0846 4.31531 14.0645C4.28724 14.0517 4.25918 14.039 4.23111 14.0263C3.74375 13.781 3.2755 13.5154 2.82677 13.2107C2.60221 13.0574 2.38659 12.896 2.17219 12.7303C2.15958 12.7206 2.14941 12.7124 2.14168 12.7058C2.12907 12.696 2.11361 12.6827 2.09571 12.6679C2.06479 12.6414 2.03427 12.6168 2.00335 12.5902C1.99521 12.5816 1.98057 12.5723 1.96471 12.557C1.85811 12.4617 1.75193 12.3684 1.64696 12.2706C1.32637 11.9704 0.784531 11.8825 0.435167 12.2139C0.0951571 12.5392 0.052536 13.0419 0.364593 13.3933C1.76987 14.9846 3.77341 16.012 5.83911 16.5595C7.87552 17.0986 9.99279 17.1662 12.0929 16.9863C11.8558 17.1319 11.6207 17.2771 11.3836 17.4227C11.2067 17.5312 10.9911 17.6374 10.8386 17.7718C10.6877 17.9038 10.5645 18.0774 10.4343 18.2277C10.1895 18.5107 10.253 18.9936 10.4455 19.2688C10.6497 19.5601 11.0533 19.7485 11.4238 19.6536C11.5849 19.6122 11.7395 19.57 11.8977 19.5147C12.0641 19.4578 12.2016 19.3636 12.3504 19.2732C12.6006 19.1187 12.8507 18.9642 13.1008 18.8097C13.5881 18.5096 14.0721 18.204 14.5582 17.8979C15.4985 17.3068 16.4365 16.7141 17.3768 16.123C17.76 15.9966 18.0898 15.6425 18.1015 15.2367C18.1129 14.8084 17.8602 14.3542 17.4131 14.2324" fill="#EC8724"/>
<defs>
<radialGradient id="paint0_radial_138_5" cx="0" cy="0" r="1" gradientUnits="userSpaceOnUse" gradientTransform="translate(25.685 20.6089) rotate(10.7157) scale(26.8896)">
<stop offset="0.09" stop-color="#FA8F21"/>
<stop offset="0.78" stop-color="#D82D7E"/>
</radialGradient>
<radialGradient id="paint1_radial_138_5" cx="0" cy="0" r="1" gradientUnits="userSpaceOnUse" gradientTransform="translate(38.879 22.4133) rotate(10.7157) scale(23.6631)">
<stop offset="0.64" stop-color="#8C3AAA" stop-opacity="0"/>
<stop offset="1" stop-color="#8C3AAA"/>
</radialGradient>
</defs>
</svg>
