<svg width="210" height="142" viewBox="0 0 210 142" fill="none" xmlns="http://www.w3.org/2000/svg">
<path d="M116.021 105.215C112.153 104.439 108.447 103.001 105.067 100.966C102.598 99.4821 100.492 97.4656 98.9031 95.0635C97.2417 92.7094 96.1319 90.0111 95.6564 87.1692C94.9979 83.2795 95.0145 79.3055 95.7055 75.4215C96.6272 68.9215 96.933 66.9774 100.023 50.6502C103.112 34.323 103.543 32.4096 105.052 26.0157C105.833 22.1503 107.27 18.4471 109.301 15.0668C110.786 12.598 112.803 10.491 115.204 8.89898C117.56 7.23961 120.258 6.13143 123.1 5.6565C126.99 4.99691 130.965 5.01261 134.849 5.70292C141.351 6.62788 143.298 6.93424 159.616 10.0223C175.934 13.1103 177.857 13.5422 184.251 15.0514C188.117 15.832 191.821 17.2693 195.202 19.3008C197.673 20.7823 199.779 22.7992 201.366 25.2029C203.024 27.5595 204.133 30.2579 204.61 33.0996C205.27 36.9896 205.254 40.9642 204.564 44.849C203.639 51.3534 203.333 53.2954 200.245 69.6178C197.156 85.9401 196.731 87.8595 195.215 94.2523C194.435 98.1193 192.998 101.824 190.965 105.205C189.449 107.649 187.438 109.748 185.061 111.368C182.685 112.988 179.996 114.092 177.167 114.609C173.277 115.269 169.302 115.254 165.417 114.564C158.919 113.639 156.971 113.333 140.648 110.244C124.326 107.155 122.406 106.733 116.02 105.216" fill="url(#paint0_radial_138_4)"/>
<path d="M116.021 105.215C112.153 104.439 108.447 103.001 105.067 100.966C102.598 99.4821 100.492 97.4656 98.9031 95.0635C97.2417 92.7094 96.1319 90.0111 95.6564 87.1692C94.9979 83.2795 95.0145 79.3055 95.7055 75.4215C96.6272 68.9215 96.933 66.9774 100.023 50.6502C103.112 34.323 103.543 32.4096 105.052 26.0157C105.833 22.1503 107.27 18.4471 109.301 15.0668C110.786 12.598 112.803 10.491 115.204 8.89898C117.56 7.23961 120.258 6.13143 123.1 5.6565C126.99 4.99691 130.965 5.01261 134.849 5.70292C141.351 6.62788 143.298 6.93424 159.616 10.0223C175.934 13.1103 177.857 13.5422 184.251 15.0514C188.117 15.832 191.821 17.2693 195.202 19.3008C197.673 20.7823 199.779 22.7992 201.366 25.2029C203.024 27.5595 204.133 30.2579 204.61 33.0996C205.27 36.9896 205.254 40.9642 204.564 44.849C203.639 51.3534 203.333 53.2954 200.245 69.6178C197.156 85.9401 196.731 87.8595 195.215 94.2523C194.435 98.1193 192.998 101.824 190.965 105.205C189.449 107.649 187.438 109.748 185.061 111.368C182.685 112.988 179.996 114.092 177.167 114.609C173.277 115.269 169.302 115.254 165.417 114.564C158.919 113.639 156.971 113.333 140.648 110.244C124.326 107.155 122.406 106.733 116.02 105.216" fill="url(#paint1_radial_138_4)"/>
<path d="M137.788 58.0176C138.253 55.5629 139.435 53.3013 141.185 51.5185C142.936 49.7358 145.175 48.512 147.621 48.0021C150.066 47.4921 152.608 47.7188 154.925 48.6535C157.242 49.5882 159.229 51.189 160.636 53.2533C162.043 55.3176 162.806 57.7528 162.829 60.2509C162.852 62.749 162.134 65.1979 160.765 67.2877C159.396 69.3776 157.439 71.0146 155.14 71.9918C152.84 72.9689 150.303 73.2424 147.848 72.7775C144.557 72.1541 141.648 70.2489 139.762 67.4809C137.875 64.7129 137.165 61.3089 137.788 58.0176ZM131.079 56.7478C130.363 60.5291 130.785 64.4377 132.291 67.9793C133.796 71.5209 136.319 74.5365 139.538 76.6446C142.758 78.7527 146.53 79.8588 150.379 79.8229C154.227 79.787 157.978 78.6108 161.158 76.443C164.338 74.2751 166.803 71.2131 168.243 67.644C169.682 64.075 170.031 60.1592 169.245 56.3919C168.459 52.6245 166.574 49.1749 163.827 46.4791C161.081 43.7834 157.596 41.9626 153.815 41.247C151.304 40.7718 148.725 40.7958 146.223 41.3176C143.722 41.8394 141.348 42.8488 139.236 44.2882C137.125 45.7276 135.318 47.5688 133.918 49.7066C132.518 51.8444 131.553 54.237 131.079 56.7478ZM169.366 43.4051C169.198 44.2887 169.297 45.2021 169.648 46.0299C170 46.8576 170.589 47.5626 171.341 48.0555C172.093 48.5485 172.974 48.8074 173.874 48.7994C174.773 48.7914 175.65 48.5169 176.393 48.0107C177.136 47.5044 177.713 46.7891 178.05 45.9552C178.386 45.1214 178.468 44.2063 178.285 43.3259C178.102 42.4455 177.661 41.6392 177.02 41.0089C176.378 40.3787 175.564 39.9528 174.681 39.7852C173.496 39.5616 172.271 39.8173 171.275 40.4961C170.279 41.1749 169.593 42.2213 169.368 43.4055M129.422 87.8268C127.066 87.354 124.809 86.4793 122.749 85.241C121.261 84.3181 119.982 83.0937 118.995 81.6466C118.008 80.1996 117.334 78.5619 117.019 76.8389C116.618 74.4695 116.629 72.0488 117.05 69.6829C117.612 65.7244 117.799 64.5386 119.681 54.5961C121.562 44.6535 121.824 43.4848 122.744 39.59C123.22 37.2347 124.094 34.978 125.33 32.9174C126.253 31.4281 127.478 30.1488 128.926 29.1618C130.373 28.1749 132.012 27.5022 133.735 27.1873C136.105 26.7867 138.525 26.7972 140.891 27.2184C144.85 27.7802 146.036 27.968 155.974 29.8487C165.913 31.7295 167.086 31.9911 170.98 32.9133C173.335 33.3887 175.592 34.2632 177.653 35.499C179.142 36.422 180.421 37.6468 181.408 39.0945C182.395 40.5421 183.068 42.1805 183.383 43.904C183.783 46.2735 183.773 48.6942 183.352 51.0601C182.789 55.0245 182.602 56.2044 180.72 66.1479C178.839 76.0914 178.58 77.2597 177.657 81.154C177.183 83.5096 176.308 85.7664 175.071 87.8265C174.148 89.3149 172.923 90.5935 171.475 91.5799C170.028 92.5663 168.39 93.2386 166.667 93.5537C164.297 93.9543 161.876 93.9438 159.511 93.5226C155.552 92.9608 154.366 92.773 144.423 90.8914C134.479 89.0097 133.311 88.751 129.422 87.8287M141.851 20.456C138.75 19.9321 135.583 19.9384 132.484 20.4747C129.83 20.963 127.307 22.0006 125.076 23.521C122.846 25.0415 120.958 27.0111 119.534 29.3037C117.903 31.9923 116.74 34.9382 116.094 38.016C115.159 41.9508 114.878 43.2125 112.964 53.324C111.051 63.4356 110.853 64.7121 110.284 68.7172C109.761 71.818 109.767 74.9852 110.303 78.084C110.791 80.7385 111.829 83.2618 113.349 85.4919C114.87 87.722 116.84 89.6099 119.132 91.0344C121.821 92.6654 124.767 93.8285 127.844 94.4744C131.782 95.4067 133.041 95.6908 143.152 97.6042C153.264 99.5177 154.54 99.7155 158.546 100.284C161.646 100.808 164.814 100.801 167.912 100.265C170.567 99.777 173.09 98.7394 175.32 97.219C177.55 95.6986 179.438 93.7289 180.863 91.4364C182.495 88.7485 183.659 85.8023 184.303 82.7241C185.235 78.7858 185.516 77.527 187.43 67.4155C189.343 57.304 189.541 56.0275 190.112 52.0229C190.636 48.9221 190.63 45.7548 190.094 42.6561C189.605 40.002 188.568 37.4792 187.048 35.2492C185.528 33.0192 183.559 31.1312 181.268 29.7062C178.58 28.0741 175.633 26.9109 172.555 26.2663C168.619 25.3332 167.359 25.0499 157.249 23.1368C147.14 21.2237 145.86 21.0254 141.853 20.4564" fill="white"/>
<path d="M55.0888 109.945C54.7577 109.974 54.8988 109.965 55.0888 109.945V109.945ZM83.847 105.551C79.3547 104.317 74.9407 102.818 70.652 101.037C69.6137 100.607 68.5713 100.157 67.5467 99.6947C67.0843 99.4828 66.6121 99.2729 66.1478 99.0515C66.1028 99.0311 66.0459 99.0031 65.9773 98.9677C65.7383 98.8485 65.5013 98.7388 65.2622 98.6196C63.1169 97.5752 61.0166 96.4522 58.9554 95.2715C56.7317 93.9955 53.5111 94.3723 52.0696 96.6915C50.5753 99.101 51.277 101.712 53.446 103.366C56.3556 105.591 59.4551 107.499 62.7153 109.096C60.2626 109.434 57.8177 109.71 55.3493 109.921C55.32 109.928 55.2905 109.934 55.2592 109.93C54.8674 109.961 54.4736 109.983 54.0701 110.007C53.3648 110.053 52.6655 110.078 51.9563 110.106C50.4772 110.163 49.0001 110.18 47.5171 110.169C44.796 110.145 42.0806 110.001 39.3849 109.705C38.2251 109.577 37.0712 109.429 35.9291 109.238C35.455 109.167 34.9789 109.087 34.5107 108.995C34.4676 108.984 34.4147 108.976 34.3598 108.957C33.9641 108.87 33.5605 108.795 33.1648 108.708C30.8354 108.207 28.5333 107.591 26.2646 106.84C25.1675 106.472 24.086 106.08 23.0085 105.658C22.4736 105.441 21.9387 105.225 21.4117 104.996C21.1982 104.902 20.9866 104.816 20.7828 104.72C20.6476 104.658 20.5125 104.597 20.3773 104.536C18.0301 103.355 15.775 102.075 13.6139 100.608C12.5324 99.8694 11.494 99.0923 10.4614 98.2942C10.4007 98.2472 10.3517 98.2079 10.3145 98.1759C10.2537 98.129 10.1793 98.065 10.0931 97.9936C9.94417 97.8657 9.79716 97.7473 9.64825 97.6194C9.60906 97.5779 9.53857 97.533 9.46215 97.4596C8.9488 97.0005 8.43739 96.5509 7.93187 96.0803C6.38789 94.6344 3.77835 94.211 2.09579 95.8069C0.458283 97.3736 0.253017 99.7948 1.7559 101.487C8.52379 109.151 18.173 114.099 28.1215 116.736C37.929 119.332 48.126 119.658 58.2404 118.791C57.0984 119.492 55.9662 120.192 54.8242 120.893C53.9721 121.416 52.9339 121.927 52.1993 122.574C51.4726 123.21 50.8792 124.046 50.2524 124.77C49.0733 126.133 49.3793 128.459 50.3061 129.784C51.2898 131.187 53.2334 132.094 55.018 131.637C55.7937 131.438 56.5382 131.234 57.3002 130.968C58.1014 130.694 58.7635 130.24 59.4805 129.805C60.6852 129.061 61.8899 128.317 63.0946 127.573C65.4413 126.128 67.7723 124.656 70.1131 123.182C74.642 120.335 79.1591 117.48 83.6879 114.633C85.5333 114.025 87.1218 112.32 87.1783 110.365C87.2328 108.302 86.0158 106.115 83.8627 105.528" fill="#EC8724"/>
<defs>
<radialGradient id="paint0_radial_138_4" cx="0" cy="0" r="1" gradientUnits="userSpaceOnUse" gradientTransform="translate(97.4412 99.7932) rotate(10.7157) scale(129.502)">
<stop offset="0.09" stop-color="#FA8F21"/>
<stop offset="0.78" stop-color="#D82D7E"/>
</radialGradient>
<radialGradient id="paint1_radial_138_4" cx="0" cy="0" r="1" gradientUnits="userSpaceOnUse" gradientTransform="translate(160.984 108.484) rotate(10.7157) scale(113.963)">
<stop offset="0.64" stop-color="#8C3AAA" stop-opacity="0"/>
<stop offset="1" stop-color="#8C3AAA"/>
</radialGradient>
</defs>
</svg>
