<svg width="245" height="45" viewBox="0 0 245 45" fill="none" xmlns="http://www.w3.org/2000/svg">
<path d="M17.6109 40.0456C15.846 38.491 15.8077 36.7887 15.4048 35.1504C14.9061 33.116 14.5224 31.0841 14.4553 29.0424C14.3689 25.9453 14.8581 22.8483 15.9419 19.771C16.6325 17.8153 16.4695 15.0356 20.9584 13.5375C25.1403 12.1452 30.7898 12.3272 36.257 12.2288C64.5906 11.727 92.9722 11.5327 121.344 11.545C150.493 11.5573 179.642 11.818 208.791 12.3248C217.788 12.4822 221.164 14.8388 221.932 17.5127C223.361 22.4916 224.445 27.6329 223.658 32.688C223.255 35.2537 222.382 37.812 220.886 40.3334C218.987 43.5461 213.011 44.1832 204.091 44.3038C174.683 44.6998 145.314 44.9999 115.877 44.9999C88.8574 44.9999 61.8762 44.6703 34.8758 44.3726C32.4587 44.3456 29.9841 44.3161 27.7492 44.011C23.4042 43.4206 19.8649 41.7651 18.0042 40.3703C17.8603 40.2621 17.726 40.1539 17.6013 40.0407" fill="#EC8724"/>
<path d="M26.5785 35.4916C24.7485 35.4916 23.6625 34.6156 23.6625 32.8576V32.4496H24.6885V32.8396C24.6885 34.0636 25.3425 34.5676 26.5665 34.5676C27.8325 34.5676 28.4865 34.1596 28.4865 33.1936C28.4865 32.1736 27.5925 31.7296 26.2905 31.3336C24.8145 30.8776 23.7285 30.1156 23.7285 28.6456C23.7285 27.2056 24.8565 26.4136 26.5245 26.4136C28.2885 26.4136 29.4225 27.2296 29.4225 28.9096V29.3596H28.3965V28.9516C28.3965 27.7816 27.7485 27.3376 26.5425 27.3376C25.3845 27.3376 24.7245 27.7156 24.7245 28.6456C24.7245 29.6896 25.6725 30.1036 26.9625 30.5356C28.5405 31.0516 29.4885 31.6816 29.4885 33.1576C29.4885 34.6336 28.3845 35.4916 26.5785 35.4916ZM36.6034 35.3716H35.5834V31.7296C35.5834 30.5056 35.0794 29.8756 33.9454 29.8756C32.8114 29.8756 32.0374 30.6016 32.0374 31.5736V35.3716H31.0174V25.9936H32.0374V29.7556C32.5834 29.1736 33.3394 28.9036 34.1314 28.9036C35.7334 28.9036 36.6034 29.9416 36.6034 31.5016V35.3716ZM40.6028 35.4916C39.1508 35.4916 38.1908 34.7776 38.1908 33.5776C38.1908 32.3296 39.2288 31.7296 40.7948 31.5736C41.5808 31.4956 42.1388 31.4116 42.4688 31.3336C42.7988 31.2556 42.9668 31.1296 42.9668 30.9556V30.9376C42.9668 30.1996 42.3488 29.8396 41.2148 29.8396C40.0328 29.8396 39.3428 30.2296 39.3428 31.1476H38.3348C38.3348 29.7196 39.5168 28.9036 41.2208 28.9036C42.5588 28.9036 43.9928 29.4676 43.9928 30.9916V34.1716C43.9928 34.5316 44.0288 35.1016 44.2988 35.3716H43.2728C43.2308 35.3296 43.1408 35.1676 43.0688 34.9696C43.0388 34.8796 43.0148 34.7536 42.9968 34.6156C42.5588 35.1436 41.7248 35.4916 40.6028 35.4916ZM40.7648 34.5736C41.9948 34.5736 42.9668 34.0036 42.9668 32.8996V32.0956C42.4628 32.2456 41.7608 32.3476 41.0408 32.4136C40.4348 32.4676 39.9848 32.5756 39.6788 32.7316C39.3728 32.8876 39.2168 33.1516 39.2168 33.5176C39.2168 34.2136 39.7088 34.5736 40.7648 34.5736ZM46.7093 35.3716H45.6893V28.9996H46.7093V29.8276C47.0393 29.2996 47.6153 28.9036 48.4913 28.9036C49.0013 28.9036 49.3433 29.0176 49.4213 29.0656L49.1573 30.0676C49.0793 30.0136 48.8453 29.8936 48.3953 29.8936C47.0633 29.8936 46.7093 30.9856 46.7093 31.8856V35.3716ZM56.5443 32.5936H51.1683C51.3183 33.8236 52.1643 34.5616 53.4423 34.5616C54.7983 34.5616 55.3863 33.9256 55.4523 33.3676H56.4723C56.3943 34.3876 55.3503 35.4976 53.4123 35.4976C51.4623 35.4976 50.1543 34.0996 50.1543 32.2036C50.1543 30.2596 51.5103 28.9036 53.4183 28.9036C55.3623 28.9036 56.5683 30.2656 56.5683 32.1316C56.5683 32.2576 56.5623 32.5216 56.5443 32.5936ZM53.4303 29.8276C52.2363 29.8276 51.3723 30.5296 51.1863 31.6816H55.4703C55.4043 30.6616 54.7023 29.8276 53.4303 29.8276ZM61.3501 38.0596C61.0321 38.0596 60.7321 38.0116 60.6661 37.9816V37.0936C60.7681 37.1416 61.0441 37.1776 61.2841 37.1776C62.0461 37.1776 62.4421 36.6556 62.6701 35.9716L62.8621 35.4076L60.6661 28.9996H61.7341L63.4261 34.2616L65.0821 28.9996H66.1321L63.7981 35.9176C63.5341 36.6916 63.1981 37.3756 62.5801 37.7656C62.2681 37.9636 61.8601 38.0596 61.3501 38.0596ZM70.0589 35.4856C68.1209 35.4856 66.7949 34.0636 66.7949 32.1796C66.7949 30.2416 68.1629 28.9096 70.0589 28.9096C72.0029 28.9096 73.3229 30.2836 73.3229 32.1796C73.3229 34.1116 71.9609 35.4856 70.0589 35.4856ZM70.0589 34.5496C71.3729 34.5496 72.2969 33.6076 72.2969 32.1796C72.2969 30.7516 71.3729 29.8456 70.0589 29.8456C68.7449 29.8456 67.8209 30.7516 67.8209 32.1796C67.8209 33.6076 68.7449 34.5496 70.0589 34.5496ZM80.3399 35.3716H79.3199V34.4236C78.8579 35.0476 78.1499 35.4856 77.2679 35.4856C75.4379 35.4856 74.9159 34.0516 74.9159 32.9656V28.9996H75.9419V32.7196C75.9419 33.6856 76.2899 34.5436 77.4719 34.5436C78.5639 34.5436 79.3199 33.3856 79.3199 32.3776V28.9996H80.3399V35.3716ZM83.1312 35.3716H82.1112V28.9996H83.1312V29.8276C83.4612 29.2996 84.0372 28.9036 84.9132 28.9036C85.4232 28.9036 85.7652 29.0176 85.8432 29.0656L85.5792 30.0676C85.5012 30.0136 85.2672 29.8936 84.8172 29.8936C83.4852 29.8936 83.1312 30.9856 83.1312 31.8856V35.3716ZM95.6813 35.3716H94.6553V34.5736C94.1033 35.1736 93.3833 35.4916 92.5673 35.4916C91.5173 35.4916 90.6053 34.9756 90.0833 33.9856C89.8253 33.4936 89.6933 32.8936 89.6933 32.1796C89.6933 30.7816 90.2693 29.7916 91.1393 29.2816C91.5773 29.0296 92.0513 28.9036 92.5673 28.9036C93.3593 28.9036 94.1213 29.2336 94.6553 29.7976V25.9936H95.6813V35.3716ZM92.7113 34.5256C93.7733 34.5256 94.6553 33.6736 94.6553 32.5996V31.6996C94.6553 30.6496 93.7313 29.8396 92.7113 29.8396C92.1413 29.8396 91.6733 30.0316 91.3013 30.4096C90.9293 30.7936 90.7433 31.3816 90.7433 32.1796C90.7433 32.9716 90.9293 33.5596 91.3073 33.9436C91.6793 34.3336 92.1473 34.5256 92.7113 34.5256ZM103.618 32.5936H98.2425C98.3925 33.8236 99.2385 34.5616 100.516 34.5616C101.872 34.5616 102.46 33.9256 102.526 33.3676H103.546C103.468 34.3876 102.424 35.4976 100.486 35.4976C98.5365 35.4976 97.2285 34.0996 97.2285 32.2036C97.2285 30.2596 98.5845 28.9036 100.492 28.9036C102.436 28.9036 103.642 30.2656 103.642 32.1316C103.642 32.2576 103.636 32.5216 103.618 32.5936ZM100.504 29.8276C99.3105 29.8276 98.4465 30.5296 98.2605 31.6816H102.544C102.478 30.6616 101.776 29.8276 100.504 29.8276ZM107.623 35.4676C106.837 35.4676 106.051 35.1976 106.051 33.8656V29.8996H104.497V28.9996H105.493C106.039 28.9996 106.051 28.9756 106.051 28.3336V26.8876H107.077V28.9996H109.069V29.8996H107.077V33.4816C107.077 33.8236 107.119 34.0876 107.203 34.2796C107.281 34.4716 107.467 34.5676 107.755 34.5676C107.989 34.5676 108.217 34.5196 108.319 34.4776V35.3656C108.181 35.4136 107.929 35.4676 107.623 35.4676ZM112.392 35.4916C110.94 35.4916 109.98 34.7776 109.98 33.5776C109.98 32.3296 111.018 31.7296 112.584 31.5736C113.37 31.4956 113.928 31.4116 114.258 31.3336C114.588 31.2556 114.756 31.1296 114.756 30.9556V30.9376C114.756 30.1996 114.138 29.8396 113.004 29.8396C111.822 29.8396 111.132 30.2296 111.132 31.1476H110.124C110.124 29.7196 111.306 28.9036 113.01 28.9036C114.348 28.9036 115.782 29.4676 115.782 30.9916V34.1716C115.782 34.5316 115.818 35.1016 116.088 35.3716H115.062C115.02 35.3296 114.93 35.1676 114.858 34.9696C114.828 34.8796 114.804 34.7536 114.786 34.6156C114.348 35.1436 113.514 35.4916 112.392 35.4916ZM112.554 34.5736C113.784 34.5736 114.756 34.0036 114.756 32.8996V32.0956C114.252 32.2456 113.55 32.3476 112.83 32.4136C112.224 32.4676 111.774 32.5756 111.468 32.7316C111.162 32.8876 111.006 33.1516 111.006 33.5176C111.006 34.2136 111.498 34.5736 112.554 34.5736ZM118.546 35.3716H117.538V28.9996H118.546V35.3716ZM118.048 27.5356C117.67 27.5356 117.352 27.3076 117.352 26.9416C117.352 26.5816 117.67 26.3536 118.048 26.3536C118.426 26.3536 118.738 26.5816 118.738 26.9416C118.738 27.3076 118.426 27.5356 118.048 27.5356ZM120.533 25.9936H121.541V35.3716H120.533V25.9936ZM125.844 35.4916C124.308 35.4916 123.162 34.8256 123.162 33.6256V33.4396H124.188V33.5716C124.188 34.2196 124.83 34.5676 125.868 34.5676C126.822 34.5676 127.542 34.2796 127.542 33.6796C127.542 33.3496 127.386 33.1096 127.08 32.9656C126.768 32.8276 126.306 32.7016 125.688 32.5996C124.392 32.3776 123.258 31.9276 123.258 30.7216C123.258 29.3596 124.716 28.9036 125.844 28.9036C127.032 28.9036 128.43 29.4436 128.43 30.8116V30.9316H127.41V30.8416C127.41 30.1456 126.654 29.8216 125.856 29.8216C125.31 29.8216 124.266 29.9476 124.266 30.6796C124.266 31.3276 124.98 31.5376 126.096 31.7416C127.422 31.9816 128.55 32.3896 128.55 33.6256C128.55 34.8676 127.314 35.4916 125.844 35.4916ZM135.655 35.4676C134.869 35.4676 134.083 35.1976 134.083 33.8656V29.8996H132.529V28.9996H133.525C134.071 28.9996 134.083 28.9756 134.083 28.3336V26.8876H135.109V28.9996H137.101V29.8996H135.109V33.4816C135.109 33.8236 135.151 34.0876 135.235 34.2796C135.313 34.4716 135.499 34.5676 135.787 34.5676C136.021 34.5676 136.249 34.5196 136.351 34.4776V35.3656C136.213 35.4136 135.961 35.4676 135.655 35.4676ZM141.215 35.4856C139.277 35.4856 137.951 34.0636 137.951 32.1796C137.951 30.2416 139.319 28.9096 141.215 28.9096C143.159 28.9096 144.479 30.2836 144.479 32.1796C144.479 34.1116 143.117 35.4856 141.215 35.4856ZM141.215 34.5496C142.529 34.5496 143.453 33.6076 143.453 32.1796C143.453 30.7516 142.529 29.8456 141.215 29.8456C139.901 29.8456 138.977 30.7516 138.977 32.1796C138.977 33.6076 139.901 34.5496 141.215 34.5496ZM150.89 34.8016L153.14 34.9816C154.172 35.0656 154.886 35.4256 154.886 36.3496C154.886 37.3696 153.854 38.0896 151.7 38.0896C149.678 38.0896 148.634 37.4596 148.634 36.4456C148.634 36.1276 148.724 35.8756 148.82 35.7256L149.792 35.8696C149.726 35.9596 149.654 36.1456 149.654 36.3856C149.654 37.0276 150.41 37.2556 151.748 37.2556C153.242 37.2556 153.926 36.9316 153.926 36.4096C153.926 36.1516 153.818 35.9896 153.602 35.9296C153.38 35.8636 153.11 35.8216 152.792 35.7976L150.368 35.6176C149.72 35.5696 149 35.1796 149 34.4476C149 33.9616 149.372 33.4936 149.666 33.3196C149.15 32.8636 148.868 32.2216 148.868 31.4836C148.868 29.8756 150.17 28.9036 151.676 28.9036C152.54 28.9036 153.362 29.1976 153.908 29.8816L154.022 28.9996H154.982L154.586 31.5076C154.37 32.9116 153.476 34.0096 151.742 34.0096C151.208 34.0096 150.746 33.9136 150.35 33.7456C150.17 33.8656 150.026 34.0276 150.026 34.2556C150.026 34.7116 150.542 34.7716 150.89 34.8016ZM151.736 33.0976C152.894 33.0976 153.602 32.5036 153.602 31.4596C153.602 30.4516 152.894 29.8156 151.742 29.8156C150.638 29.8156 149.87 30.4756 149.87 31.4776C149.87 32.4976 150.578 33.0976 151.736 33.0976ZM162.224 32.5936H156.848C156.998 33.8236 157.844 34.5616 159.122 34.5616C160.478 34.5616 161.066 33.9256 161.132 33.3676H162.152C162.074 34.3876 161.03 35.4976 159.092 35.4976C157.142 35.4976 155.834 34.0996 155.834 32.2036C155.834 30.2596 157.19 28.9036 159.098 28.9036C161.042 28.9036 162.248 30.2656 162.248 32.1316C162.248 32.2576 162.242 32.5216 162.224 32.5936ZM159.11 29.8276C157.916 29.8276 157.052 30.5296 156.866 31.6816H161.15C161.084 30.6616 160.382 29.8276 159.11 29.8276ZM166.229 35.4676C165.443 35.4676 164.657 35.1976 164.657 33.8656V29.8996H163.103V28.9996H164.099C164.645 28.9996 164.657 28.9756 164.657 28.3336V26.8876H165.683V28.9996H167.675V29.8996H165.683V33.4816C165.683 33.8236 165.725 34.0876 165.809 34.2796C165.887 34.4716 166.073 34.5676 166.361 34.5676C166.595 34.5676 166.823 34.5196 166.925 34.4776V35.3656C166.787 35.4136 166.535 35.4676 166.229 35.4676ZM174.418 35.4916C172.882 35.4916 171.736 34.8256 171.736 33.6256V33.4396H172.762V33.5716C172.762 34.2196 173.404 34.5676 174.442 34.5676C175.396 34.5676 176.116 34.2796 176.116 33.6796C176.116 33.3496 175.96 33.1096 175.654 32.9656C175.342 32.8276 174.88 32.7016 174.262 32.5996C172.966 32.3776 171.832 31.9276 171.832 30.7216C171.832 29.3596 173.29 28.9036 174.418 28.9036C175.606 28.9036 177.004 29.4436 177.004 30.8116V30.9316H175.984V30.8416C175.984 30.1456 175.228 29.8216 174.43 29.8216C173.884 29.8216 172.84 29.9476 172.84 30.6796C172.84 31.3276 173.554 31.5376 174.67 31.7416C175.996 31.9816 177.124 32.3896 177.124 33.6256C177.124 34.8676 175.888 35.4916 174.418 35.4916ZM181.1 35.4676C180.314 35.4676 179.528 35.1976 179.528 33.8656V29.8996H177.974V28.9996H178.97C179.516 28.9996 179.528 28.9756 179.528 28.3336V26.8876H180.554V28.9996H182.546V29.8996H180.554V33.4816C180.554 33.8236 180.596 34.0876 180.68 34.2796C180.758 34.4716 180.944 34.5676 181.232 34.5676C181.466 34.5676 181.694 34.5196 181.796 34.4776V35.3656C181.658 35.4136 181.406 35.4676 181.1 35.4676ZM185.868 35.4916C184.416 35.4916 183.456 34.7776 183.456 33.5776C183.456 32.3296 184.494 31.7296 186.06 31.5736C186.846 31.4956 187.404 31.4116 187.734 31.3336C188.064 31.2556 188.232 31.1296 188.232 30.9556V30.9376C188.232 30.1996 187.614 29.8396 186.48 29.8396C185.298 29.8396 184.608 30.2296 184.608 31.1476H183.6C183.6 29.7196 184.782 28.9036 186.486 28.9036C187.824 28.9036 189.258 29.4676 189.258 30.9916V34.1716C189.258 34.5316 189.294 35.1016 189.564 35.3716H188.538C188.496 35.3296 188.406 35.1676 188.334 34.9696C188.304 34.8796 188.28 34.7536 188.262 34.6156C187.824 35.1436 186.99 35.4916 185.868 35.4916ZM186.03 34.5736C187.26 34.5736 188.232 34.0036 188.232 32.8996V32.0956C187.728 32.2456 187.026 32.3476 186.306 32.4136C185.7 32.4676 185.25 32.5756 184.944 32.7316C184.638 32.8876 184.482 33.1516 184.482 33.5176C184.482 34.2136 184.974 34.5736 186.03 34.5736ZM191.975 35.3716H190.955V28.9996H191.975V29.8276C192.305 29.2996 192.881 28.9036 193.757 28.9036C194.267 28.9036 194.609 29.0176 194.687 29.0656L194.423 30.0676C194.345 30.0136 194.111 29.8936 193.661 29.8936C192.329 29.8936 191.975 30.9856 191.975 31.8856V35.3716ZM198.303 35.4676C197.517 35.4676 196.731 35.1976 196.731 33.8656V29.8996H195.177V28.9996H196.173C196.719 28.9996 196.731 28.9756 196.731 28.3336V26.8876H197.757V28.9996H199.749V29.8996H197.757V33.4816C197.757 33.8236 197.799 34.0876 197.883 34.2796C197.961 34.4716 198.147 34.5676 198.435 34.5676C198.669 34.5676 198.897 34.5196 198.999 34.4776V35.3656C198.861 35.4136 198.609 35.4676 198.303 35.4676ZM206.99 32.5936H201.614C201.764 33.8236 202.61 34.5616 203.888 34.5616C205.244 34.5616 205.832 33.9256 205.898 33.3676H206.918C206.84 34.3876 205.796 35.4976 203.858 35.4976C201.908 35.4976 200.6 34.0996 200.6 32.2036C200.6 30.2596 201.956 28.9036 203.864 28.9036C205.808 28.9036 207.014 30.2656 207.014 32.1316C207.014 32.2576 207.008 32.5216 206.99 32.5936ZM203.876 29.8276C202.682 29.8276 201.818 30.5296 201.632 31.6816H205.916C205.85 30.6616 205.148 29.8276 203.876 29.8276ZM214.345 35.3716H213.319V34.5736C212.767 35.1736 212.047 35.4916 211.231 35.4916C210.181 35.4916 209.269 34.9756 208.747 33.9856C208.489 33.4936 208.357 32.8936 208.357 32.1796C208.357 30.7816 208.933 29.7916 209.803 29.2816C210.241 29.0296 210.715 28.9036 211.231 28.9036C212.023 28.9036 212.785 29.2336 213.319 29.7976V25.9936H214.345V35.3716ZM211.375 34.5256C212.437 34.5256 213.319 33.6736 213.319 32.5996V31.6996C213.319 30.6496 212.395 29.8396 211.375 29.8396C210.805 29.8396 210.337 30.0316 209.965 30.4096C209.593 30.7936 209.407 31.3816 209.407 32.1796C209.407 32.9716 209.593 33.5596 209.971 33.9436C210.343 34.3336 210.811 34.5256 211.375 34.5256ZM216.163 26.5336H217.189L217.009 33.2896H216.349L216.163 26.5336ZM216.679 35.5276C216.289 35.5276 215.983 35.2216 215.983 34.8316C215.983 34.4476 216.289 34.1356 216.679 34.1356C217.063 34.1356 217.375 34.4476 217.375 34.8316C217.375 35.2216 217.063 35.5276 216.679 35.5276Z" fill="white"/>
<path d="M235.915 13.8677H232.655L232.588 10.318C234.664 9.55895 235.2 9.17942 235.2 8.59897C235.2 8.06316 234.754 7.77294 233.727 7.77294C232.878 7.77294 231.896 7.92921 231.137 8.08549V4.22322C231.896 3.99997 233.28 3.75439 234.642 3.75439C237.5 3.75439 239.085 5.33949 239.085 7.63898C239.085 9.425 238.281 10.8092 235.982 12.0371L235.915 13.8677ZM234.285 19.0472C232.543 19.0472 231.762 18.4221 231.762 17.0602C231.762 15.6984 232.543 15.0733 234.285 15.0733C236.026 15.0733 236.808 15.6984 236.808 17.0602C236.808 18.4221 236.026 19.0472 234.285 19.0472Z" fill="white"/>
<path d="M222.104 6.79053H229.204V10.2286L227.485 10.184C227.686 10.6305 227.797 11.1216 227.797 11.6798C227.797 14.2025 225.743 15.7206 222.104 15.7206C220.854 15.7206 219.783 15.5197 218.934 15.1625C218.778 15.3857 218.689 15.609 218.689 15.8322C218.689 16.4574 219.18 16.7476 220.385 16.7476H224.047C227.105 16.7476 228.4 17.8862 228.4 20.3866C228.4 20.8554 228.355 21.3689 228.221 21.8154H224.27C224.315 21.6368 224.359 21.3689 224.359 21.168C224.359 20.5429 224.002 20.275 223.198 20.275H220.095C216.925 20.275 215.697 19.2703 215.697 17.3057C215.697 16.1671 216.277 15.0732 217.26 14.0462C216.612 13.3095 216.277 12.3718 216.277 11.2556C216.277 8.48725 218.376 6.79053 222.104 6.79053ZM222.104 12.8183C223.064 12.8183 223.6 12.2602 223.6 11.3672C223.6 10.4742 223.064 9.91606 222.104 9.91606C221.144 9.91606 220.609 10.4742 220.609 11.3672C220.609 12.2602 221.144 12.8183 222.104 12.8183Z" fill="white"/>
<path d="M206.281 18.8461H201.816V6.79053H205.567L206.147 9.75978C207.219 8.04074 208.916 6.5896 210.858 6.5896C212.733 6.5896 213.604 7.72819 213.604 10.5858V18.8461H209.139V11.9477C209.139 11.2109 208.871 10.876 208.335 10.876C207.599 10.876 206.795 11.5235 206.281 12.4165V18.8461Z" fill="white"/>
<path d="M197.182 5.58541C195.44 5.58541 194.636 5.0496 194.636 3.95567C194.636 2.86173 195.44 2.32593 197.182 2.32593C198.923 2.32593 199.727 2.86173 199.727 3.95567C199.727 5.0496 198.923 5.58541 197.182 5.58541ZM199.414 18.8466H194.949V6.79097H199.414V18.8466Z" fill="white"/>
<path d="M185.221 18.8461H180.756V6.79053H184.506L185.087 9.75978C186.158 8.04074 187.855 6.5896 189.797 6.5896C191.673 6.5896 192.543 7.72819 192.543 10.5858V18.8461H188.078V11.9477C188.078 11.2109 187.81 10.876 187.275 10.876C186.538 10.876 185.734 11.5235 185.221 12.4165V18.8461Z" fill="white"/>
<path d="M176.121 5.58541C174.379 5.58541 173.575 5.0496 173.575 3.95567C173.575 2.86173 174.379 2.32593 176.121 2.32593C177.862 2.32593 178.666 2.86173 178.666 3.95567C178.666 5.0496 177.862 5.58541 176.121 5.58541ZM178.353 18.8466H173.888V6.79097H178.353V18.8466Z" fill="white"/>
<path d="M165.546 19.0471C161.528 19.0471 159.295 16.9039 159.295 12.8183C159.295 8.86677 161.528 6.5896 165.546 6.5896C169.565 6.5896 171.797 8.86677 171.797 12.8183C171.797 16.9039 169.565 19.0471 165.546 19.0471ZM165.546 15.7876C166.685 15.7876 167.332 14.9169 167.332 13.0416C167.332 11.2332 166.685 10.4519 165.546 10.4519C164.408 10.4519 163.76 11.2332 163.76 13.0416C163.76 14.9169 164.408 15.7876 165.546 15.7876Z" fill="white"/>
<path d="M154.963 5.58541C153.221 5.58541 152.417 5.0496 152.417 3.95567C152.417 2.86173 153.221 2.32593 154.963 2.32593C156.704 2.32593 157.508 2.86173 157.508 3.95567C157.508 5.0496 156.704 5.58541 154.963 5.58541ZM153.132 22.0168C152.284 22.0168 151.413 21.9051 150.765 21.7265V17.4401C150.944 17.4848 151.324 17.5517 151.591 17.5517C152.395 17.5517 152.73 17.1945 152.73 16.2569V6.79097H157.195V17.3955C157.195 20.521 155.9 22.0168 153.132 22.0168Z" fill="white"/>
<path d="M137.257 18.8461H132.792V6.79053H136.542L137.123 9.75978C138.194 8.04074 139.891 6.5896 141.833 6.5896C143.709 6.5896 144.579 7.72819 144.579 10.5858V18.8461H140.114V11.9477C140.114 11.2109 139.847 10.876 139.311 10.876C138.574 10.876 137.77 11.5235 137.257 12.4165V18.8461Z" fill="white"/>
<path d="M128.156 5.58541C126.415 5.58541 125.611 5.0496 125.611 3.95567C125.611 2.86173 126.415 2.32593 128.156 2.32593C129.898 2.32593 130.701 2.86173 130.701 3.95567C130.701 5.0496 129.898 5.58541 128.156 5.58541ZM130.389 18.8466H125.924V6.79097H130.389V18.8466Z" fill="white"/>
<path d="M110.9 19.0472C108.355 19.0472 106.97 17.1272 106.97 12.8184C106.97 8.68827 108.533 6.5897 111.413 6.5897C112.775 6.5897 114.092 7.28178 114.74 7.95154L114.695 3.95532H119.205V18.8462H115.454L114.874 15.877C114.36 17.3505 113.11 19.0472 110.9 19.0472ZM112.708 15.3189C113.78 15.3189 114.74 13.6221 114.74 10.8985V10.6752C114.449 10.385 113.824 10.0278 113.132 10.0278C112.195 10.0278 111.48 10.7868 111.48 12.8184C111.48 14.6268 111.927 15.3189 112.708 15.3189Z" fill="white"/>
<path d="M105.043 12.3942C105.043 12.9969 104.976 13.7113 104.932 14.4034H98.5022C98.6808 15.5197 99.3728 15.7876 100.958 15.7876C102.208 15.7876 103.927 15.4527 104.776 15.1848V18.3773C103.816 18.6675 102.074 19.0471 100.266 19.0471C96.292 19.0471 94.238 17.1271 94.238 12.8183C94.238 8.7105 96.2027 6.5896 99.6407 6.5896C103.257 6.5896 105.043 8.53189 105.043 12.3942ZM98.4352 12.6174H101.226V12.5951C101.226 10.876 100.735 10.1616 99.8417 10.1616C98.9487 10.1616 98.4575 10.7198 98.4352 12.6174Z" fill="white"/>
<path d="M92.4555 6.79117V10.9437H89.5085V13.2432C89.5085 14.2031 89.9327 14.6496 90.9373 14.6496C91.4732 14.6496 92.1652 14.538 92.4555 14.471V18.6905C91.7187 18.8914 90.4908 19.0477 89.5309 19.0477C86.4723 19.0477 85.0881 17.485 85.0881 14.3148V4.84888H89.5085V6.79117H92.4555Z" fill="white"/>
<path d="M79.032 19.0471C77.5362 19.0471 75.7948 18.6899 74.9465 18.422V15.2964C75.8841 15.609 77.2236 15.9215 78.2059 15.9215C78.6301 15.9215 78.7417 15.8322 78.7417 15.6983C78.7417 15.5643 78.6078 15.4974 78.2283 15.3188L77.4245 14.9392C75.8841 14.2025 74.8125 13.1532 74.8125 10.8984C74.8125 8.26399 76.6432 6.5896 79.4562 6.5896C80.751 6.5896 81.9789 6.81285 82.7156 7.0361V11.5458C81.8896 11.2779 80.6617 11.0546 79.9027 11.0546C79.0096 11.0546 78.7417 11.2779 78.7417 11.6128C78.7417 11.903 78.9427 12.0816 79.3892 12.2825L80.3715 12.729C82.1352 13.5327 83.1175 14.3141 83.1175 15.8992C83.1175 18.0424 81.711 19.0471 79.032 19.0471Z" fill="white"/>
<path d="M72.8857 12.3942C72.8857 12.9969 72.8188 13.7113 72.7741 14.4034H66.3444C66.523 15.5197 67.2151 15.7876 68.8002 15.7876C70.0504 15.7876 71.7695 15.4527 72.6178 15.1848V18.3773C71.6578 18.6675 69.9165 19.0471 68.1081 19.0471C64.1342 19.0471 62.0803 17.1271 62.0803 12.8183C62.0803 8.7105 64.0449 6.5896 67.483 6.5896C71.0997 6.5896 72.8857 8.53189 72.8857 12.3942ZM66.2775 12.6174H69.0681V12.5951C69.0681 10.876 68.577 10.1616 67.684 10.1616C66.7909 10.1616 66.2998 10.7198 66.2775 12.6174Z" fill="white"/>
<path d="M55.8693 18.8461H51.4043V6.79053H55.1549L55.7354 9.75978C56.4498 7.81749 57.3875 6.5896 59.0842 6.5896C59.62 6.5896 60.1781 6.70123 60.6469 6.87983V11.3449C59.8879 11.1663 59.1065 11.01 58.3028 11.01C56.6954 11.01 55.8693 11.7691 55.8693 14.0462V18.8461Z" fill="white"/>
<path d="M49.2959 12.3942C49.2959 12.9969 49.2289 13.7113 49.1843 14.4034H42.7546C42.9332 15.5197 43.6253 15.7876 45.2104 15.7876C46.4606 15.7876 48.1796 15.4527 49.028 15.1848V18.3773C48.068 18.6675 46.3266 19.0471 44.5183 19.0471C40.5444 19.0471 38.4905 17.1271 38.4905 12.8183C38.4905 8.7105 40.4551 6.5896 43.8932 6.5896C47.5099 6.5896 49.2959 8.53189 49.2959 12.3942ZM42.6876 12.6174H45.4783V12.5951C45.4783 10.876 44.9871 10.1616 44.0941 10.1616C43.2011 10.1616 42.7099 10.7198 42.6876 12.6174Z" fill="white"/>
<path d="M36.7086 6.79117V10.9437H33.7617V13.2432C33.7617 14.2031 34.1859 14.6496 35.1905 14.6496C35.7263 14.6496 36.4184 14.538 36.7086 14.471V18.6905C35.9719 18.8914 34.744 19.0477 33.784 19.0477C30.7255 19.0477 29.3413 17.485 29.3413 14.3148V4.84888H33.7617V6.79117H36.7086Z" fill="white"/>
<path d="M19.7004 18.8461H15.2354V6.79053H18.986L19.5664 9.75978C20.6381 8.04074 22.3348 6.5896 24.2771 6.5896C26.1524 6.5896 27.0231 7.72819 27.0231 10.5858V18.8461H22.558V11.9477C22.558 11.2109 22.2901 10.876 21.7543 10.876C21.0176 10.876 20.2139 11.5235 19.7004 12.4165V18.8461Z" fill="white"/>
<path d="M12.8327 18.8462H8.36768V3.95532H12.8327V18.8462Z" fill="white"/>
<path d="M236.807 17.0603C236.807 15.6985 236.026 15.0731 234.285 15.0731C232.543 15.0731 231.762 15.6984 231.762 17.0603L231.764 17.1856C231.81 18.4193 232.548 19.0084 234.124 19.0452L234.285 19.047C235.972 19.0469 236.758 18.4604 236.805 17.1856L236.807 17.0603ZM239.133 17.0603C239.133 18.198 238.785 19.4844 237.641 20.3887C236.619 21.1967 235.352 21.3725 234.285 21.3725C233.218 21.3725 231.95 21.1967 230.928 20.3887C229.784 19.4844 229.436 18.198 229.436 17.0603C229.436 16.1357 229.665 15.1125 230.365 14.2764C230.344 14.1578 230.332 14.036 230.33 13.9117L230.263 10.3621C230.262 10.3212 230.262 10.2804 230.264 10.2399C230.051 10.1537 229.849 10.0362 229.667 9.88788C229.486 9.73989 229.331 9.56654 229.203 9.37598V6.79063H228.811V4.223C228.811 3.19145 229.491 2.283 230.481 1.99193C231.447 1.70787 233.051 1.42872 234.642 1.42871C236.49 1.42871 238.212 1.94544 239.498 3.11201C240.806 4.29897 241.41 5.93248 241.41 7.63909C241.41 8.90873 241.115 10.1753 240.322 11.3491C239.79 12.1363 239.09 12.7986 238.259 13.3721L238.238 13.9526C238.234 14.0629 238.222 14.1711 238.203 14.2769C238.903 15.113 239.133 16.1357 239.133 17.0603ZM231.137 8.08558C231.896 7.9293 232.878 7.77309 233.726 7.77309L233.912 7.77626C234.807 7.81011 235.2 8.09659 235.2 8.59884L235.194 8.70557C235.127 9.22834 234.534 9.60639 232.588 10.318L232.655 13.8676H235.914L235.981 12.0372C238.209 10.8477 239.033 9.51139 239.082 7.80533L239.084 7.63909C239.084 5.3396 237.499 3.75425 234.642 3.75425C233.28 3.75426 231.896 3.99975 231.137 4.223V8.08558Z" fill="#EC8724"/>
<path d="M213.604 15.6834C213.793 15.0292 214.087 14.4212 214.446 13.8629C214.112 13.0509 213.952 12.1704 213.952 11.2557C213.952 9.22322 214.756 7.40075 216.366 6.14908C217.899 4.95679 219.925 4.46533 222.104 4.46533V6.79088L221.76 6.79587C218.247 6.89797 216.278 8.57397 216.277 11.2557C216.277 12.372 216.612 13.3097 217.26 14.0464C216.278 15.0734 215.697 16.1677 215.697 17.3062L215.701 17.4875C215.773 19.2729 216.945 20.2134 219.803 20.2722L220.095 20.2754H223.198C224.002 20.2754 224.359 20.5433 224.359 21.1684C224.359 21.3693 224.314 21.637 224.27 21.8156H228.221C228.338 21.425 228.388 20.9831 228.398 20.5647L228.4 20.3867C228.4 17.8864 227.105 16.748 224.047 16.748H220.385C219.18 16.748 218.688 16.4574 218.688 15.8323C218.688 15.6092 218.778 15.386 218.934 15.1628C219.782 15.52 220.854 15.7211 222.104 15.7211C225.743 15.721 227.797 14.2027 227.797 11.68C227.797 11.1219 227.685 10.6307 227.485 10.1843L229.204 10.2288V6.79088H222.104V4.46533H229.204C230.009 4.46533 230.72 4.87488 231.137 5.49729V8.08582C231.262 8.06004 231.394 8.03414 231.529 8.00906V10.2288C231.529 10.856 231.276 11.4566 230.827 11.8944C230.611 12.1044 230.359 12.2679 230.086 12.3799C229.954 13.6316 229.463 14.7586 228.641 15.6706C228.719 15.7294 228.797 15.7902 228.872 15.8541C230.293 17.0557 230.726 18.7521 230.726 20.3867C230.726 20.9733 230.673 21.7366 230.449 22.4838C230.154 23.4674 229.248 24.1412 228.221 24.1412H224.27C223.554 24.1411 222.878 23.8112 222.437 23.2468C222.283 23.0495 222.164 22.8311 222.082 22.6009H220.095C218.357 22.6009 216.663 22.3434 215.365 21.4268C214.388 20.7367 213.833 19.8237 213.568 18.8465H213.604V15.6834ZM222.934 11.3675L222.927 11.3066C222.909 11.2037 222.847 10.9873 222.632 10.7743C222.417 10.5624 222.21 10.5101 222.133 10.4972L222.104 10.4931C222.135 10.4931 221.862 10.4925 221.577 10.7743C221.29 11.0583 221.275 11.3481 221.275 11.3675L221.281 11.4283C221.299 11.5312 221.362 11.7476 221.577 11.9607C221.862 12.2425 222.135 12.2418 222.104 12.2418V12.8187L221.929 12.8123C221.079 12.7477 220.609 12.2046 220.609 11.3675C220.609 10.4745 221.144 9.91628 222.104 9.91628C223.064 9.91633 223.6 10.4745 223.6 11.3675L223.594 11.531C223.531 12.3281 223.004 12.8186 222.104 12.8187V12.2418C222.073 12.2418 222.346 12.243 222.632 11.9607C222.847 11.7476 222.909 11.5313 222.927 11.4283L222.934 11.3675Z" fill="#EC8724"/>
<path d="M199.491 6.79071C199.491 5.50638 200.532 4.46522 201.817 4.46516H205.567L205.671 4.46744C206.335 4.49679 206.936 4.807 207.345 5.29182C208.359 4.67104 209.536 4.2644 210.858 4.2644C212.31 4.26443 213.825 4.74186 214.836 6.17707C215.711 7.41984 215.93 9.02037 215.93 10.5861V16.0525C215.778 16.4633 215.697 16.8817 215.697 17.3061C215.697 17.7874 215.772 18.2106 215.93 18.576V18.8463C215.93 20.1307 214.888 21.1718 213.604 21.1718H209.139C208.6 21.1718 208.105 20.988 207.71 20.6804C207.316 20.9879 206.821 21.1718 206.282 21.1718H201.817C200.532 21.1718 199.491 20.1306 199.491 18.8463V6.79071ZM201.817 18.8463H206.282V12.4165C206.795 11.5236 207.599 10.8763 208.336 10.8763C208.871 10.8764 209.139 11.2111 209.139 11.9478V18.8463H213.604V10.5861C213.604 7.81765 212.787 6.66255 211.031 6.59313L210.858 6.58995C208.916 6.58995 207.219 8.04087 206.148 9.75986L205.567 6.79071H201.817V18.8463Z" fill="#EC8724"/>
<path d="M199.727 3.95524C199.727 2.92966 199.02 2.39431 197.497 2.33145L197.181 2.32554C195.44 2.32558 194.636 2.86135 194.636 3.95524C194.636 5.04902 195.44 5.5849 197.181 5.58494C198.868 5.58494 199.676 5.082 199.724 4.05608L199.727 3.95524ZM199.414 18.846V6.79041H194.949V18.846H199.414ZM202.052 3.95524C202.052 4.62892 201.896 5.29716 201.558 5.88881C201.675 6.16608 201.74 6.47068 201.74 6.79041V18.846C201.74 20.1303 200.698 21.1714 199.414 21.1715H194.949C193.665 21.1715 192.623 20.1303 192.623 18.846V6.79041C192.623 6.47088 192.688 6.1664 192.805 5.88926C192.505 5.36427 192.348 4.77878 192.317 4.1828L192.311 3.95524L192.317 3.72723C192.377 2.58954 192.891 1.48962 193.993 0.77715C194.975 0.142224 196.155 1.717e-05 197.181 0C198.207 0 199.388 0.142153 200.37 0.77715C201.545 1.53709 202.052 2.73803 202.052 3.95524Z" fill="#EC8724"/>
<path d="M178.43 6.79071C178.43 5.50638 179.471 4.46522 180.755 4.46516H184.506L184.61 4.46744C185.274 4.49679 185.875 4.807 186.284 5.29182C187.298 4.67104 188.475 4.2644 189.797 4.2644C191.249 4.26443 192.764 4.74186 193.775 6.17707C194.65 7.41984 194.869 9.02037 194.869 10.5861V18.8463C194.869 20.1307 193.827 21.1718 192.543 21.1718H188.078C187.539 21.1718 187.044 20.988 186.649 20.6804C186.255 20.9879 185.76 21.1718 185.221 21.1718H180.755C179.471 21.1718 178.43 20.1306 178.43 18.8463V6.79071ZM180.755 18.8463H185.221V12.4165C185.734 11.5236 186.538 10.8763 187.275 10.8763C187.81 10.8764 188.078 11.2111 188.078 11.9478V18.8463H192.543V10.5861C192.543 7.81765 191.726 6.66255 189.97 6.59313L189.797 6.58995C187.855 6.58995 186.158 8.04087 185.087 9.75986L184.506 6.79071H180.755V18.8463Z" fill="#EC8724"/>
<path d="M178.666 3.95524C178.666 2.92966 177.96 2.39431 176.436 2.33145L176.121 2.32554C174.379 2.32558 173.576 2.86135 173.576 3.95524C173.576 5.04902 174.38 5.5849 176.121 5.58494C177.808 5.58494 178.615 5.082 178.664 4.05608L178.666 3.95524ZM178.354 18.846V6.79041H173.888V18.846H178.354ZM180.992 3.95524C180.992 4.62892 180.835 5.29716 180.497 5.88881C180.614 6.16608 180.679 6.47068 180.679 6.79041V18.846C180.679 20.1303 179.638 21.1714 178.354 21.1715H173.888C172.604 21.1715 171.563 20.1303 171.563 18.846V14.9189C171.718 14.2885 171.798 13.5878 171.798 12.8182C171.798 12.0737 171.718 11.3886 171.563 10.767V6.79041C171.563 6.47088 171.627 6.1664 171.744 5.88926C171.444 5.36427 171.288 4.77878 171.256 4.1828L171.25 3.95524L171.256 3.72723C171.316 2.58954 171.831 1.48962 172.933 0.77715C173.915 0.142224 175.095 1.717e-05 176.121 0C177.147 0 178.327 0.142153 179.309 0.77715C180.484 1.53709 180.992 2.73803 180.992 3.95524Z" fill="#EC8724"/>
<path d="M171.798 12.8185C171.798 8.99049 169.703 6.73369 165.918 6.59631L165.547 6.58995C161.528 6.58995 159.296 8.86694 159.296 12.8185L159.302 13.1959C159.432 16.9121 161.513 18.9158 165.175 19.0411L165.547 19.0471C169.44 19.047 171.656 17.0359 171.791 13.1959L171.798 12.8185ZM163.76 13.0415C163.76 11.2333 164.408 10.4521 165.547 10.4521C166.685 10.4522 167.333 11.2334 167.333 13.0415L167.331 13.2146C167.292 14.9705 166.65 15.7876 165.547 15.7877L165.441 15.7854C164.368 15.7326 163.76 14.8583 163.76 13.0415ZM173.888 15.1772C173.567 16.6892 172.903 18.0437 171.813 19.1202C170.185 20.7269 167.952 21.3726 165.547 21.3726C163.142 21.3726 160.909 20.7269 159.281 19.1202C158.178 18.0325 157.512 16.6607 157.195 15.1295V10.5511C157.513 9.03754 158.179 7.67112 159.267 6.57996C160.879 4.96373 163.105 4.2644 165.547 4.2644C167.989 4.26444 170.214 4.96376 171.826 6.57996C172.903 7.6602 173.567 9.01019 173.888 10.5057V15.1772Z" fill="#EC8724"/>
<path d="M157.508 3.95524C157.508 2.92969 156.801 2.39433 155.278 2.33145L154.963 2.32554C153.221 2.32556 152.418 2.86132 152.418 3.95524C152.418 5.04905 153.221 5.58493 154.963 5.58494C156.65 5.58494 157.456 5.08199 157.505 4.05608L157.508 3.95524ZM152.726 16.4255C152.686 17.2372 152.345 17.551 151.591 17.551C151.324 17.551 150.944 17.484 150.766 17.4393V21.7261C151.332 21.8824 152.07 21.9871 152.813 22.0109L153.132 22.0164C155.9 22.0163 157.195 20.5203 157.195 17.3948V6.79041H152.73V16.2561L152.726 16.4255ZM159.833 3.95524C159.833 4.6289 159.677 5.29718 159.339 5.88881C159.456 6.16607 159.521 6.47069 159.521 6.79041V10.8065C159.372 11.4176 159.295 12.0894 159.295 12.8182C159.295 13.5716 159.372 14.2589 159.521 14.8789V17.3948C159.521 19.2164 159.153 21.0373 157.951 22.4097C156.693 23.8462 154.925 24.3419 153.132 24.3419C152.111 24.3419 151.028 24.2107 150.147 23.9676C149.139 23.6894 148.44 22.7722 148.44 21.7261V17.4393C148.44 16.7233 148.77 16.0472 149.335 15.6066C149.65 15.3602 150.019 15.2025 150.405 15.1419V6.79041C150.405 6.47077 150.469 6.16602 150.585 5.88881C150.286 5.36394 150.129 4.77859 150.098 4.1828L150.092 3.95524L150.098 3.72723C150.158 2.58955 150.673 1.48962 151.775 0.77715C152.756 0.142246 153.936 5.73339e-06 154.963 0C155.989 0 157.169 0.142146 158.151 0.77715C159.326 1.5371 159.833 2.73806 159.833 3.95524Z" fill="#EC8724"/>
<path d="M130.466 6.79071C130.466 5.50638 131.507 4.46522 132.792 4.46516H136.542L136.646 4.46744C137.31 4.49679 137.911 4.807 138.32 5.29182C139.334 4.67104 140.511 4.2644 141.834 4.2644C143.285 4.26443 144.8 4.74186 145.811 6.17707C146.686 7.41984 146.905 9.02037 146.905 10.5861V18.8463C146.905 20.1307 145.864 21.1718 144.579 21.1718H140.114C139.575 21.1718 139.08 20.988 138.685 20.6804C138.291 20.9879 137.796 21.1718 137.257 21.1718H132.792C131.507 21.1718 130.466 20.1306 130.466 18.8463V6.79071ZM132.792 18.8463H137.257V12.4165C137.77 11.5236 138.574 10.8763 139.311 10.8763C139.847 10.8764 140.114 11.2111 140.114 11.9478V18.8463H144.579V10.5861C144.579 7.81765 143.762 6.66255 142.006 6.59313L141.834 6.58995C139.891 6.58995 138.195 8.04087 137.123 9.75986L136.542 6.79071H132.792V18.8463Z" fill="#EC8724"/>
<path d="M130.701 3.95524C130.701 2.92966 129.995 2.39431 128.472 2.33145L128.156 2.32554C126.415 2.32558 125.611 2.86135 125.611 3.95524C125.611 5.04902 126.415 5.5849 128.156 5.58494C129.843 5.58494 130.65 5.082 130.699 4.05608L130.701 3.95524ZM130.389 18.846V6.79041H125.924V18.846H130.389ZM133.027 3.95524C133.027 4.62892 132.871 5.29716 132.533 5.88881C132.65 6.16608 132.715 6.47068 132.715 6.79041V18.846C132.715 20.1303 131.673 21.1714 130.389 21.1715H125.924C124.639 21.1715 123.598 20.1303 123.598 18.846V6.79041C123.598 6.47088 123.663 6.1664 123.779 5.88926C123.479 5.36427 123.323 4.77878 123.292 4.1828L123.286 3.95524L123.292 3.72723C123.352 2.58954 123.866 1.48962 124.968 0.77715C125.95 0.142224 127.13 1.717e-05 128.156 0C129.182 0 130.363 0.142153 131.345 0.77715C132.52 1.53709 133.027 2.73803 133.027 3.95524Z" fill="#EC8724"/>
<path d="M119.205 3.95567H114.695L114.74 7.95179C114.112 7.30296 112.857 6.63311 111.541 6.59189L111.413 6.59008C108.533 6.59015 106.97 8.68853 106.97 12.8186L106.975 13.2156C107.055 17.1155 108.347 18.9288 110.665 19.0417L110.9 19.0472C113.11 19.0471 114.36 17.3507 114.874 15.8773L115.454 18.8464H119.205V3.95567ZM113.132 10.028C113.824 10.028 114.449 10.385 114.74 10.6752V10.8987L114.737 11.1508C114.68 13.7266 113.746 15.319 112.708 15.319C111.976 15.319 111.537 14.7107 111.485 13.1448L111.48 12.8186C111.48 10.787 112.195 10.028 113.132 10.028ZM121.53 18.8464C121.53 20.1308 120.489 21.172 119.205 21.172H115.454C114.873 21.172 114.335 20.9565 113.923 20.5956C113.092 21.0687 112.092 21.3727 110.9 21.3727C108.939 21.3727 107.177 20.5742 106.033 18.8192C105.244 17.6098 104.85 16.0941 104.708 14.4038H104.932C104.977 13.7117 105.044 12.9972 105.044 12.3944C105.044 11.6387 104.974 10.9567 104.837 10.3482C105.061 9.01586 105.499 7.80278 106.226 6.79492C107.474 5.06422 109.336 4.26457 111.413 4.26453C111.737 4.26453 112.059 4.28922 112.373 4.33539L112.37 3.98156C112.363 3.36039 112.605 2.76226 113.041 2.32052C113.478 1.87877 114.074 1.63013 114.695 1.63013H119.205C120.489 1.63013 121.53 2.67131 121.53 3.95567V18.8464Z" fill="#EC8724"/>
<path d="M105.044 12.3943C105.043 8.6528 103.367 6.71305 99.9745 6.5954L99.6407 6.58995C96.2026 6.58995 94.2379 8.71066 94.2379 12.8185L94.2438 13.2155C94.368 17.2454 96.416 19.047 100.266 19.0471C102.074 19.0471 103.816 18.6678 104.776 18.3775V15.1849C103.927 15.4528 102.208 15.7876 100.958 15.7877C99.3729 15.7877 98.6806 15.5199 98.502 14.4037H104.932C104.971 13.7982 105.027 13.1754 105.04 12.6255L105.044 12.3943ZM99.8415 10.1618C100.734 10.1618 101.226 10.8761 101.226 12.595V12.6177H98.4352C98.4576 10.7202 98.9485 10.1619 99.8415 10.1618ZM107.205 10.3403C107.05 11.0631 106.97 11.8894 106.97 12.8185C106.97 13.6873 107.028 14.4588 107.138 15.1372C107.127 15.1723 107.114 15.207 107.101 15.2412V18.3775C107.101 19.4027 106.429 20.307 105.448 20.6036C104.332 20.941 102.359 21.3726 100.266 21.3726C97.9401 21.3726 95.7218 20.811 94.1103 19.186C93.3413 18.4106 92.8058 17.4881 92.4556 16.4649V14.4705C92.3525 14.4942 92.1986 14.5233 92.0191 14.5513C91.9462 13.9901 91.9124 13.4106 91.9124 12.8185C91.9124 12.1764 91.9541 11.5489 92.0418 10.9431H92.4556V9.18257C92.7768 8.23273 93.2508 7.36785 93.9063 6.62492C95.3722 4.96365 97.4288 4.2644 99.6407 4.2644C101.852 4.26442 103.922 4.86598 105.403 6.46186C106.4 7.537 106.956 8.87727 107.205 10.3403Z" fill="#EC8724"/>
<path d="M82.7629 4.84874C82.7629 3.56441 83.8042 2.52324 85.0885 2.52319H89.5088C90.6626 2.52319 91.6198 3.3634 91.8026 4.46539H92.4557C93.7401 4.46539 94.7813 5.50657 94.7813 6.79093V9.59703C94.4614 10.3882 94.279 11.3331 94.2444 12.429C94.1611 12.5292 94.0693 12.622 93.9705 12.707C94.0685 12.7912 94.1586 12.8826 94.2403 12.9804C94.2551 14.1922 94.4358 15.21 94.7813 16.045V18.6903C94.7813 19.7389 94.0797 20.6581 93.068 20.9341C92.1025 21.1974 90.665 21.3728 89.5311 21.3728C87.6301 21.3728 85.7825 20.8823 84.4562 19.4492C83.7298 18.6643 83.2848 17.7298 83.0346 16.7299C83.0889 16.475 83.1177 16.1985 83.1177 15.8996C83.1177 15.3453 82.9969 14.8896 82.7652 14.4966C82.7643 14.4359 82.7629 14.3751 82.7629 14.3144V4.84874ZM85.0885 14.3144C85.0885 17.4845 86.4727 19.0472 89.5311 19.0473C90.491 19.0473 91.719 18.8912 92.4557 18.6903V14.4707C92.1654 14.5377 91.4735 14.6492 90.9378 14.6492C89.9332 14.6492 89.5089 14.2029 89.5088 13.243V10.9433H92.4557V6.79093H89.5088V4.84874H85.0885V14.3144Z" fill="#EC8724"/>
<path d="M78.206 15.9216C77.2237 15.9216 75.8842 15.6092 74.9466 15.2967V18.4221C75.7419 18.6732 77.3223 19.0028 78.7492 19.043L79.0322 19.0471C81.6274 19.047 83.0287 18.1044 83.1137 16.097L83.1178 15.8994C83.1178 14.3143 82.1353 13.5327 80.3716 12.729L79.3892 12.2825C78.9428 12.0817 78.742 11.9032 78.7419 11.613C78.7419 11.2782 79.0099 11.0548 79.9029 11.0548L79.947 11.0553C80.7088 11.0636 81.9056 11.283 82.7158 11.5458V7.03643C82.0251 6.82713 80.9026 6.61755 79.698 6.59222L79.4564 6.58995C76.6434 6.58995 74.8126 8.26419 74.8126 10.8986L74.8158 11.1066C74.8801 13.2187 75.9325 14.2255 77.4247 14.9392L78.206 15.308L78.2282 15.3189C78.6078 15.4975 78.7419 15.5647 78.7419 15.6986L78.736 15.7463C78.7089 15.8532 78.5773 15.9216 78.206 15.9216ZM85.0414 11.5458C85.0414 12.07 84.8638 12.5714 84.549 12.9752C84.7698 13.2866 84.9493 13.6182 85.0886 13.9686V14.3142C85.0886 15.1861 85.1943 15.9361 85.4097 16.5657C85.2708 17.9438 84.6839 19.2234 83.4821 20.1322C82.2126 21.0919 80.5944 21.3726 79.0322 21.3726C77.2567 21.3726 75.2771 20.965 74.2462 20.6395C73.2788 20.3339 72.621 19.4366 72.621 18.4221V15.2967C72.621 14.7824 72.7912 14.2897 73.0948 13.89C73.0033 13.6926 72.9216 13.4901 72.8513 13.2818C72.8709 12.9711 72.8858 12.6709 72.8858 12.3943C72.8858 11.4369 72.7753 10.5977 72.5552 9.8766C72.7566 8.39772 73.4046 7.06215 74.5015 6.04853C75.8264 4.82407 77.5936 4.2644 79.4564 4.2644C80.983 4.26442 82.4381 4.52226 83.3903 4.81082C84.3708 5.10801 85.0414 6.0119 85.0414 7.03643V11.5458Z" fill="#EC8724"/>
<path d="M72.8855 12.3943C72.8855 8.6528 71.2093 6.71305 67.8166 6.5954L67.4827 6.58995C64.0447 6.58995 62.0799 8.71066 62.0799 12.8185L62.0858 13.2155C62.2101 17.2454 64.2581 19.047 68.1077 19.0471C69.9161 19.0471 71.6576 18.6678 72.6176 18.3775V15.1849C71.7692 15.4528 70.0502 15.7876 68.7999 15.7877C67.2149 15.7877 66.5227 15.5199 66.344 14.4037H72.7738C72.8129 13.7982 72.8689 13.1754 72.8824 12.6255L72.8855 12.3943ZM67.6835 10.1618C68.5765 10.1618 69.0679 10.8761 69.0679 12.595V12.6177H66.2773C66.2996 10.7202 66.7906 10.1619 67.6835 10.1618ZM74.8123 10.8986C74.8123 11.7077 74.9511 12.3612 75.1993 12.9012C75.1763 13.4829 75.1234 14.1023 75.0944 14.5531C75.0788 14.7949 75.0262 15.026 74.9431 15.2412V18.3775C74.9431 19.4027 74.2715 20.307 73.2902 20.6036C72.1744 20.941 70.201 21.3726 68.1077 21.3726C65.7821 21.3726 63.5639 20.811 61.9523 19.186C60.345 17.5653 59.7544 15.303 59.7544 12.8185C59.7544 12.2576 59.7861 11.7078 59.8525 11.1738C60.12 11.2246 60.3848 11.2834 60.6469 11.345V8.3123C60.935 7.70058 61.2991 7.13407 61.7484 6.62492C63.2143 4.96365 65.2708 4.2644 67.4827 4.2644C69.6939 4.26442 71.7639 4.86598 73.2448 6.46186C74.113 7.39745 74.6463 8.53378 74.9345 9.77712C74.8545 10.1276 74.8123 10.5022 74.8123 10.8986Z" fill="#EC8724"/>
<path d="M49.0791 6.79071C49.0791 5.50638 50.1203 4.46522 51.4046 4.46516H55.1555L55.2591 4.46744C55.733 4.48838 56.1744 4.65253 56.5372 4.92073C57.2777 4.49868 58.1305 4.26444 59.0844 4.2644C59.9195 4.2644 60.7578 4.43347 61.4753 4.7068C62.377 5.05034 62.9729 5.91525 62.9729 6.88019V8.88461C62.3883 9.87948 62.0803 11.1934 62.0803 12.8185C62.0803 12.9383 62.0822 13.0562 62.0853 13.1723C61.5292 13.61 60.8037 13.771 60.1145 13.6088C59.3864 13.4375 58.8235 13.3358 58.3032 13.3358C58.2824 13.3358 58.2629 13.3368 58.2446 13.3372C58.2179 13.4916 58.1955 13.7207 58.1955 14.0462V18.8463C58.1955 20.1306 57.1542 21.1717 55.87 21.1718H51.4046C50.1203 21.1718 49.0791 20.1306 49.0791 18.8463V14.4037H49.1845C49.2291 13.7116 49.2962 12.997 49.2962 12.3943C49.2962 11.6206 49.2228 10.9243 49.0791 10.3049V6.79071ZM51.4046 18.8463H55.87V14.0462C55.87 11.7692 56.6958 11.0103 58.3032 11.0103L58.6034 11.0171C59.3018 11.0494 59.9831 11.1888 60.6473 11.345V6.88019C60.2371 6.72393 59.7587 6.61877 59.2865 6.59494L59.0844 6.58995C57.3878 6.59006 56.4503 7.81771 55.736 9.75986L55.1555 6.79071H51.4046V18.8463Z" fill="#EC8724"/>
<path d="M49.2962 12.3943C49.2962 8.6528 47.6199 6.71305 44.2272 6.5954L43.8934 6.58995C40.4553 6.58995 38.4906 8.71066 38.4906 12.8185L38.4965 13.2155C38.6207 17.2454 40.6687 19.047 44.5184 19.0471C46.3267 19.0471 48.0682 18.6678 49.0282 18.3775V15.1849C48.1799 15.4528 46.4608 15.7876 45.2106 15.7877C43.6255 15.7877 42.9333 15.5199 42.7547 14.4037H49.1845C49.2235 13.7982 49.2796 13.1754 49.293 12.6255L49.2962 12.3943ZM44.0941 10.1618C44.9871 10.1618 45.4785 10.8761 45.4786 12.595V12.6177H42.6879C42.7102 10.7202 43.2012 10.1619 44.0941 10.1618ZM51.4046 15.0964C51.3893 15.1454 51.3721 15.1937 51.3537 15.2412V18.3775C51.3537 19.4027 50.6821 20.307 49.7009 20.6036C48.585 20.941 46.6117 21.3726 44.5184 21.3726C42.1927 21.3726 39.9745 20.811 38.363 19.186C37.594 18.4106 37.0585 17.4881 36.7083 16.4649V14.4705C36.6051 14.4942 36.4513 14.5233 36.2718 14.5513C36.1989 13.9901 36.165 13.4106 36.165 12.8185C36.165 12.1764 36.2068 11.5489 36.2945 10.9431H36.7083V9.18257C37.0295 8.23273 37.5035 7.36785 38.159 6.62492C39.6249 4.96365 41.6815 4.2644 43.8934 4.2644C46.1046 4.26442 48.1745 4.86598 49.6555 6.46186C50.5876 7.46639 51.1334 8.70239 51.4046 10.0537V15.0964Z" fill="#EC8724"/>
<path d="M27.0156 4.84874C27.0156 3.56441 28.0568 2.52324 29.3412 2.52319H33.7615C34.9153 2.52319 35.8725 3.3634 36.0553 4.46539H36.7084C37.9928 4.46539 39.034 5.50657 39.034 6.79093V9.59703C38.7141 10.3882 38.5317 11.3331 38.4971 12.429C38.4138 12.5292 38.322 12.622 38.2232 12.707C38.3212 12.7912 38.4113 12.8826 38.493 12.9804C38.5078 14.1922 38.6884 15.21 39.034 16.045V18.6903C39.034 19.7389 38.3324 20.6581 37.3207 20.9341C36.3552 21.1974 34.9177 21.3728 33.7838 21.3728C31.8828 21.3728 30.0352 20.8823 28.7089 19.4492C27.5096 18.1534 27.0787 16.4497 27.0229 14.7173V10.5863C27.0229 10.4384 27.0203 10.295 27.0156 10.1562V4.84874ZM29.3412 14.3144C29.3412 17.4845 30.7254 19.0472 33.7838 19.0473C34.7437 19.0473 35.9717 18.8912 36.7084 18.6903V14.4707C36.4181 14.5377 35.7262 14.6492 35.1905 14.6492C34.1859 14.6492 33.7615 14.2029 33.7615 13.243V10.9433H36.7084V6.79093H33.7615V4.84874H29.3412V14.3144Z" fill="#EC8724"/>
<path d="M12.9094 6.79071C12.9094 5.50638 13.9506 4.46522 15.235 4.46516H18.9858L19.0894 4.46744C19.7536 4.49679 20.3545 4.807 20.7636 5.29182C21.777 4.67104 22.9544 4.2644 24.2769 4.2644C25.7282 4.26443 27.2435 4.74186 28.2544 6.17707C29.0429 7.29662 29.2979 8.70643 29.3408 10.1196V14.3142C29.3408 14.4385 29.3438 14.5604 29.3481 14.6798V18.8463C29.3481 20.1307 28.3069 21.1718 27.0226 21.1718H22.5577C22.0188 21.1718 21.5231 20.988 21.1288 20.6804C20.7345 20.9879 20.239 21.1718 19.7003 21.1718H15.235C13.9506 21.1718 12.9094 20.1306 12.9094 18.8463V6.79071ZM15.235 18.8463H19.7003V12.4165C20.2138 11.5236 21.0175 10.8763 21.7542 10.8763C22.2899 10.8764 22.5577 11.2111 22.5577 11.9478V18.8463H27.0226V10.5861C27.0226 7.81765 26.2056 6.66255 24.4495 6.59313L24.2769 6.58995C22.3346 6.58995 20.6379 8.04087 19.5663 9.75986L18.9858 6.79071H15.235V18.8463Z" fill="#EC8724"/>
<path d="M12.8326 3.95567H8.36729V18.8464H12.8326V3.95567ZM15.1582 18.8464C15.1582 20.1307 14.1169 21.1719 12.8326 21.172H8.36729C7.08297 21.1719 6.04175 20.1308 6.04175 18.8464V3.95567C6.04175 2.67134 7.08297 1.63018 8.36729 1.63013H12.8326C14.1169 1.63022 15.1582 2.67137 15.1582 3.95567V18.8464Z" fill="#EC8724"/>
<circle cx="222.211" cy="11.3542" r="0.95044" fill="#EC8724"/>
</svg>
