<svg width="194" height="67" viewBox="0 0 194 67" fill="none" xmlns="http://www.w3.org/2000/svg">
<mask id="mask0_84_18" style="mask-type:luminance" maskUnits="userSpaceOnUse" x="0" y="0" width="194" height="67">
<path d="M194 0H0V66.4266H194V0Z" fill="white"/>
</mask>
<g mask="url(#mask0_84_18)">
<path d="M94.315 53.2045C94.315 60.4247 100.182 66.2912 107.379 66.2912C114.577 66.2912 120.466 60.4473 120.466 53.2045V1.82764H94.315V53.2045Z" fill="#E33030"/>
<path d="M149.911 35.3794H193.955C195.173 14.4631 180.823 -0.0225773 159.659 -0.0225773C138.494 -0.0225773 123.896 16.8774 123.896 33.7999C123.896 52.5275 139.103 66.2686 160.99 66.2686C169 66.2686 176.649 65.0953 182.132 61.2596C188.45 56.8371 188.72 47.699 181.996 44.2242C179.492 42.8704 176.017 43.6601 172.294 45.6231C169.699 46.9769 166.18 47.7667 162.908 47.7667C156.816 47.7667 151.378 45.1268 150.159 38.4029H149.483L144.248 36.5752V35.3568H149.889L149.911 35.3794ZM161.464 19.2014C169.361 19.2014 172.655 24.7971 172.655 28.678H150.272C150.272 24.7746 153.183 19.2014 161.464 19.2014Z" fill="#E33030"/>
<path d="M66.5846 7.62939e-06C48.1052 7.62939e-06 39.328 18.6148 39.328 28.3396H36.4174C36.4174 14.1021 46.1422 7.67156 46.1422 3.65527C46.1422 2.68505 45.894 1.82764 42.7351 1.82764H19.9912V53.2045C19.9912 60.4248 25.8577 66.2912 33.078 66.2912C40.2983 66.2912 46.1648 60.4248 46.1648 53.2045V36.7332C46.1648 25.5418 49.4364 21.0516 55.4157 21.0516C61.8689 21.0516 64.1703 26.0382 64.1703 37.5906V65.0728H90.3213V31.2503C90.3213 14.8241 85.583 7.62939e-06 66.6072 7.62939e-06" fill="#E33030"/>
<path d="M18.141 4.51265L18.0958 62.1621C18.0958 64.5087 16.1779 66.4266 13.8314 66.4266H4.26448C1.91789 66.4266 0 64.5087 0 62.1621L0.0451278 4.51265C0.0451278 2.16606 1.96301 0.248171 4.30961 0.248171H13.8765C16.2231 0.248171 18.141 2.16606 18.141 4.51265Z" fill="#A3DCE6"/>
</g>
<path d="M2.95593 62.0717V61.3271L6.65632 58.7549H2.95593V58.1682H7.60398V58.8451L3.8359 61.485H7.60398V62.0717H2.95593Z" fill="#231F20"/>
<path d="M7.0399 52.8433H7.60398V56.1375H2.95593V52.8658H3.52001V55.5509H4.98663V53.2269H5.55072V55.5509H7.0399V52.8433Z" fill="#231F20"/>
<path d="M2.95593 50.6774L6.67888 50.3164L2.97849 49.2333V48.6241L6.70145 47.5636L2.95593 47.1801V46.5709L7.62655 47.1124V47.9021L3.88103 48.9175L7.62655 50.0231V50.8128L2.95593 51.3092V50.6774Z" fill="#231F20"/>
<mask id="mask1_84_18" style="mask-type:luminance" maskUnits="userSpaceOnUse" x="0" y="0" width="194" height="67">
<path d="M194 0H0V66.4266H194V0Z" fill="white"/>
</mask>
<g mask="url(#mask1_84_18)">
<path d="M6.00194 44.2694C6.65628 44.2694 7.13011 43.7278 7.13011 42.9832C7.13011 42.3966 6.79166 41.9679 6.31783 41.9679C6.00194 41.9679 5.70862 42.2386 5.61836 42.6448L5.41529 43.5248C5.25735 44.2468 4.80608 44.7206 4.19687 44.7206C3.42972 44.7206 2.86563 44.0663 2.86563 43.1412C2.86563 42.2612 3.38459 41.5617 4.10662 41.4715L4.28712 42.1258C3.76816 42.1484 3.42972 42.5997 3.42972 43.1637C3.42972 43.7053 3.72304 44.0888 4.15174 44.0888C4.51276 44.0888 4.76095 43.7955 4.87377 43.3217L5.07684 42.4192C5.21222 41.7648 5.68606 41.3135 6.29527 41.3135C7.15268 41.3135 7.73932 41.9905 7.71676 42.9832C7.71676 44.0663 7.06242 44.8786 6.15989 44.9237L6.0245 44.2468L6.00194 44.2694Z" fill="#231F20"/>
<path d="M4.42262 36.1014C5.28003 36.1014 5.88924 36.7332 5.88924 37.6357V38.8993H7.62662V39.4859H2.956V37.5906C2.956 36.7106 3.56521 36.0788 4.40006 36.0788M4.42262 36.688C3.90366 36.688 3.54265 37.0491 3.54265 37.568V38.8993H5.32516V37.6131C5.32516 37.0942 4.96414 36.688 4.44519 36.688" fill="#231F20"/>
</g>
<path d="M6.36299 32.0624V34.1157L7.62654 34.6121V35.289L2.97848 33.3937V32.7619L7.64911 30.8891V31.5886L6.38555 32.085L6.36299 32.0624ZM5.82147 32.2655L3.72307 33.0778L5.82147 33.8901V32.2655Z" fill="#231F20"/>
<mask id="mask2_84_18" style="mask-type:luminance" maskUnits="userSpaceOnUse" x="0" y="0" width="194" height="67">
<path d="M194 0H0V66.4266H194V0Z" fill="white"/>
</mask>
<g mask="url(#mask2_84_18)">
<path d="M4.42255 25.9027C5.27995 25.9027 5.88917 26.5345 5.88917 27.437V28.7006H7.62655V29.2872H2.95593V27.4145C2.95593 26.5345 3.56514 25.9027 4.39998 25.9027M4.44511 26.4894C3.92615 26.4894 3.56514 26.8729 3.56514 27.3693V28.7006H5.34764V27.4145C5.34764 26.8955 4.98663 26.4894 4.46767 26.4894" fill="#231F20"/>
</g>
<path d="M7.06246 20.8937H7.64911V24.188H2.97848V20.9163H3.54257V23.6013H5.00919V21.2999H5.59584L5.57328 23.6013H7.06246V20.8937Z" fill="#231F20"/>
<mask id="mask3_84_18" style="mask-type:luminance" maskUnits="userSpaceOnUse" x="0" y="0" width="194" height="67">
<path d="M194 0H0V66.4266H194V0Z" fill="white"/>
</mask>
<g mask="url(#mask3_84_18)">
<path d="M7.64882 15.5236V16.2456L5.73093 17.2159V18.5697H7.64882V19.1563H2.97819V17.1031C2.97819 16.2457 3.54228 15.6364 4.35456 15.6364C4.96377 15.6364 5.4376 15.9974 5.64067 16.5615L7.64882 15.5236ZM5.16684 17.1031C5.16684 16.5841 4.82839 16.2456 4.37712 16.2456C3.92586 16.2456 3.56484 16.5841 3.56484 17.0805V18.5697H5.16684V17.1031Z" fill="#231F20"/>
</g>
<path d="M15.1626 61.4852H10.492V62.0719H15.1626V61.4852Z" fill="#231F20"/>
<path d="M10.5144 59.4545V58.7099L14.2148 56.1377H10.5144V55.551H15.1625V56.2054L11.3944 58.8679H15.1625V59.4545H10.5144Z" fill="#231F20"/>
<path d="M14.5984 47.699H15.185L15.1625 50.9933H10.5144V47.7216H11.0785V50.4066H12.5451V48.1052H13.1092V50.4066H14.5984V47.699Z" fill="#231F20"/>
<mask id="mask4_84_18" style="mask-type:luminance" maskUnits="userSpaceOnUse" x="0" y="0" width="194" height="67">
<path d="M194 0H0V66.4266H194V0Z" fill="white"/>
</mask>
<g mask="url(#mask4_84_18)">
<path d="M12.8614 41.9453C14.2152 41.9453 15.1854 42.8929 15.1854 44.179V45.9615H10.5148V44.179C10.5148 42.8929 11.485 41.9453 12.8388 41.9453M12.8614 42.577C11.846 42.577 11.1015 43.2539 11.1015 44.2467V45.3749H14.5988V44.2467C14.5988 43.2765 13.8542 42.577 12.8614 42.577Z" fill="#231F20"/>
<path d="M10.5147 40.1402V39.5535H13.29C14.1022 39.5535 14.6663 39.012 14.6663 38.2674C14.6663 37.5228 14.1022 36.9813 13.29 36.9813H10.5147V36.3946H13.3125C14.4407 36.3946 15.253 37.1843 15.253 38.2674C15.253 39.3504 14.4407 40.1402 13.3125 40.1402H10.4921H10.5147Z" fill="#231F20"/>
<path d="M15.2754 32.3107C15.2754 33.6194 14.2601 34.567 12.8612 34.567C11.4622 34.567 10.4469 33.6194 10.4469 32.3107C10.4469 31.3179 11.1012 30.4605 12.0038 30.28L12.2294 30.9795C11.5525 31.0697 11.0335 31.6338 11.0335 32.3333C11.0335 33.2584 11.8007 33.9353 12.8612 33.9353C13.8991 33.9353 14.6888 33.2358 14.6888 32.3107C14.6888 31.5661 14.1473 30.9795 13.4253 30.9343L13.6283 30.2574C14.5985 30.4154 15.298 31.3179 15.298 32.3107" fill="#231F20"/>
</g>
<path d="M13.944 25.7223V27.7756L15.2076 28.272V28.9714L10.537 27.0761V26.4443L15.2076 24.5716V25.2485L13.944 25.7449V25.7223ZM13.38 25.9479L11.2816 26.7602L13.38 27.5725V25.9479Z" fill="#231F20"/>
<path d="M11.1236 19.8782L11.101 21.5705L15.2076 21.593V22.1797L11.101 22.1571V23.8719H10.537V19.8782H11.1236Z" fill="#231F20"/>
<path d="M15.2076 17.5993H10.537V18.1859H15.2076V17.5993Z" fill="#231F20"/>
<mask id="mask5_84_18" style="mask-type:luminance" maskUnits="userSpaceOnUse" x="0" y="0" width="194" height="67">
<path d="M194 0H0V66.4266H194V0Z" fill="white"/>
</mask>
<g mask="url(#mask5_84_18)">
<path d="M12.8837 15.7042C11.4848 15.7042 10.4694 14.7114 10.4694 13.3801C10.4694 12.0263 11.4848 11.0561 12.8837 11.0561C14.2827 11.0561 15.298 12.0489 15.298 13.3801C15.298 14.7339 14.2827 15.7042 12.8837 15.7042ZM12.8837 11.6653C11.8232 11.6653 11.0561 12.3874 11.0561 13.3576C11.0561 14.3278 11.8232 15.0498 12.8837 15.0498C13.9216 15.0498 14.6888 14.3278 14.6888 13.3576C14.6888 12.3874 13.9216 11.6653 12.8837 11.6653Z" fill="#231F20"/>
</g>
<path d="M10.5595 9.13805V8.39346L14.2599 5.82123H10.5595V5.23458H15.2076V5.88892L11.4395 8.5514H15.2076V9.13805H10.5595Z" fill="#231F20"/>
</svg>
