<svg width="88" height="38" viewBox="0 0 88 38" fill="none" xmlns="http://www.w3.org/2000/svg">
<path d="M55.0888 15.9454C54.7577 15.9741 54.8987 15.9648 55.0888 15.9454V15.9454ZM83.847 11.5512C79.3547 10.3168 74.9407 8.81848 70.652 7.03663C69.6136 6.60651 68.5713 6.15736 67.5467 5.69467C67.0843 5.48276 66.6121 5.27292 66.1478 5.0515C66.1028 5.03106 66.0459 5.00313 65.9773 4.96772C65.7383 4.84851 65.5012 4.73881 65.2622 4.6196C63.1169 3.57525 61.0166 2.45217 58.9554 1.27151C56.7317 -0.00446503 53.5111 0.372257 52.0696 2.69153C50.5753 5.10101 51.277 7.71178 53.446 9.3658C56.3556 11.5906 59.4551 13.4987 62.7153 15.0962C60.2626 15.4335 57.8177 15.7098 55.3493 15.9215C55.32 15.9275 55.2905 15.9336 55.2592 15.9301C54.8674 15.9614 54.4736 15.9831 54.0701 16.0068C53.3648 16.0531 52.6655 16.0785 51.9563 16.1058C50.4772 16.163 49.0001 16.1802 47.5171 16.1688C44.7959 16.1452 42.0806 16.0014 39.3849 15.7049C38.2251 15.5773 37.0712 15.4288 35.9291 15.2381C35.455 15.1674 34.9789 15.0871 34.5107 14.9954C34.4676 14.9844 34.4147 14.9756 34.3598 14.9571C33.9641 14.8702 33.5605 14.7949 33.1648 14.708C30.8354 14.2071 28.5333 13.5915 26.2646 12.8402C25.1675 12.4717 24.086 12.0802 23.0085 11.6582C22.4736 11.4414 21.9387 11.2246 21.4117 10.9963C21.1982 10.9016 20.9866 10.8163 20.7828 10.7196C20.6476 10.6582 20.5125 10.597 20.3773 10.5357C18.0301 9.35453 15.775 8.07511 13.6139 6.6078C12.5324 5.86939 11.494 5.09226 10.4614 4.29419C10.4007 4.24724 10.3517 4.20788 10.3145 4.17591C10.2537 4.12896 10.1793 4.06504 10.0931 3.99361C9.94417 3.86573 9.79716 3.74728 9.64825 3.6194C9.60906 3.57792 9.53857 3.53304 9.46215 3.45959C8.9488 3.00048 8.43739 2.55093 7.93187 2.08029C6.38789 0.634396 3.77835 0.210988 2.09579 1.80686C0.458283 3.37362 0.253017 5.79482 1.7559 7.48707C8.52379 15.1508 18.173 20.0991 28.1215 22.7358C37.929 25.3321 48.126 25.6578 58.2404 24.7911C57.0984 25.4924 55.9662 26.1917 54.8242 26.8931C53.9721 27.4157 52.9339 27.9272 52.1993 28.5743C51.4726 29.2098 50.8792 30.0459 50.2524 30.7698C49.0733 32.133 49.3793 34.4586 50.3061 35.784C51.2898 37.1869 53.2334 38.0944 55.018 37.6372C55.7937 37.4375 56.5381 37.2345 57.3002 36.9683C58.1014 36.6941 58.7635 36.2404 59.4805 35.8051C60.6852 35.061 61.8899 34.317 63.0946 33.573C65.4413 32.1276 67.7723 30.6556 70.1131 29.1817C74.642 26.3348 79.1591 23.4804 83.6879 20.6335C85.5332 20.0249 87.1218 18.3195 87.1783 16.3652C87.2328 14.3022 86.0158 12.1149 83.8627 11.5281" fill="#EC8724"/>
</svg>
