<svg width="58" height="54" viewBox="0 0 58 54" fill="none" xmlns="http://www.w3.org/2000/svg">
<path d="M22.7696 53.1359C22.3162 53.1359 21.8507 53.0831 21.3912 52.9659C19.2389 52.4383 17.6731 50.8086 17.3103 48.7099C16.7964 45.7377 17.661 41.851 19.8798 37.1319C17.2922 38.9667 12.6369 41.8275 8.67699 41.9155C6.62143 41.9624 4.80167 40.9717 3.81017 39.2657C2.81262 37.5539 2.90933 35.4728 4.05198 33.8372C5.80524 31.3282 9.43875 29.3057 14.8739 27.7932C10.6298 27.4298 4.29382 26.228 1.68206 22.3882C0.835656 21.1395 0.599868 19.6153 1.03516 18.1967C1.45232 16.8425 2.46196 15.7286 3.79807 15.1541C6.74234 13.8761 10.9864 14.7027 16.4518 17.5987C15.9077 16.9187 15.3394 16.1331 14.8194 15.2831C12.4132 11.3202 12.3165 7.79693 14.5474 5.09442C16.21 3.07779 19.1724 2.54432 21.4335 3.84574C24.0211 5.33477 26.2459 8.62937 28.0778 13.6592C28.1745 12.7212 28.3257 11.6368 28.5675 10.4995C29.5469 5.92688 31.4513 2.89019 34.2444 1.45979C36.1851 0.463198 38.4643 0.498386 40.3385 1.54774C42.2006 2.59122 43.3312 4.45543 43.3493 6.52482C43.3795 9.1394 42.2852 12.3988 40.1027 16.2269C42.7508 14.4506 47.1763 11.9768 51.0334 12.1761C52.9076 12.2699 54.5823 13.1844 55.6342 14.6851C56.7043 16.2034 56.9522 18.056 56.3114 19.7677C55.7007 21.4092 54.3949 22.8396 52.4361 24.0179C50.5075 25.1786 47.932 26.0931 44.764 26.7497C48.4217 27.8401 55.0901 30.3374 56.9643 34.4762C57.8228 36.3639 57.46 38.4802 56.0453 39.8754C54.014 41.8803 49.6671 42.83 40.4232 36.7508C42.0374 39.4943 44.2924 44.0962 43.8511 47.7543C43.6516 49.4192 42.5815 50.8555 41.0035 51.5941C39.474 52.3093 37.6905 52.2448 36.2395 51.4183C33.5492 49.8823 31.6508 46.5174 30.5686 41.3879C30.085 44.5828 29.0813 48.6395 26.9895 51.1544C25.9315 52.4266 24.3899 53.13 22.7635 53.13" fill="#EC8724"/>
<path d="M30.6788 32.3935C30.3577 32.3935 30.0901 32.3816 29.8939 32.3636C26.3736 32.0831 24.5243 30.4595 23.5966 29.1522C22.5798 27.7256 22.4133 26.3586 22.4014 26.2989C22.3657 25.9885 22.5917 25.7139 22.9009 25.6781C23.2161 25.6423 23.4956 25.8632 23.5372 26.1676C23.561 26.3586 24.1794 30.7758 29.9831 31.2414C31.2081 31.3369 35.3468 31.3668 37.2913 27.6122C37.434 27.3376 37.7789 27.2242 38.0583 27.3674C38.3378 27.5107 38.4508 27.845 38.3081 28.1255C36.3695 31.8802 32.5936 32.3995 30.6729 32.3995" fill="white"/>
<path d="M28.2538 22.8458C28.1349 23.8521 27.6707 24.6132 27.2235 24.5503C26.7763 24.4874 26.5103 23.6194 26.6292 22.6193C26.748 21.613 27.2122 20.8519 27.6594 20.9148C28.1066 20.9777 28.3727 21.8457 28.2538 22.8458Z" fill="white"/>
<path d="M34.6986 23.5375C34.5797 24.4665 34.1156 25.169 33.6684 25.1109C33.2212 25.0529 32.9551 24.2516 33.074 23.3285C33.1929 22.3995 33.657 21.697 34.1042 21.7551C34.5514 21.8131 34.8175 22.6143 34.6986 23.5375Z" fill="white"/>
</svg>
