<svg width="837" height="183" viewBox="0 0 837 183" fill="none" xmlns="http://www.w3.org/2000/svg">
<path d="M29.3908 158.566C22.4822 150.898 22.332 142.503 20.7551 134.423C18.8026 124.389 17.3008 114.368 17.038 104.299C16.7001 89.0243 18.6149 73.7499 22.8576 58.5726C25.561 48.9276 24.9227 35.2182 42.4945 27.8297C58.8648 20.9629 80.9797 21.8607 102.381 21.3754C213.294 18.9004 324.394 17.942 435.456 18.0027C549.56 18.0634 663.664 19.3493 777.768 21.8486C812.986 22.625 826.203 34.2476 829.206 47.4352C834.801 71.9907 839.044 97.3469 835.965 122.278C834.388 134.932 830.971 147.55 825.114 159.985C817.68 175.83 794.288 178.972 759.37 179.567C644.252 181.52 529.285 183 414.055 183C308.286 183 202.668 181.374 96.9745 179.906C87.5127 179.773 77.8258 179.627 69.0774 178.123C52.0689 175.211 38.2142 167.046 30.9302 160.167C30.367 159.633 29.8413 159.1 29.3532 158.542" fill="#F2BA2F"/>
<path d="M12.3908 136.306C5.4822 128.871 5.33201 120.73 3.75505 112.895C1.80263 103.166 0.30081 93.4481 0.0379849 83.6835C-0.299934 68.872 1.61489 54.0606 5.85765 39.3431C8.561 29.9904 7.92275 16.6964 25.4945 9.53184C41.8648 2.87313 63.9797 3.74369 85.3812 3.27311C196.294 0.87315 307.394 -0.056209 418.456 0.00261352C532.56 0.0614361 646.664 1.30845 760.768 3.73194C795.986 4.48487 809.203 15.7552 812.206 28.5433C817.801 52.3546 822.044 76.9425 818.965 101.119C817.388 113.389 813.971 125.624 808.114 137.683C800.68 153.047 777.288 156.094 742.37 156.671C627.252 158.565 512.285 160 397.055 160C291.286 160 185.668 158.423 79.9745 157C70.5127 156.871 60.8258 156.729 52.0774 155.271C35.0689 152.447 21.2142 144.53 13.9302 137.859C13.367 137.342 12.8413 136.824 12.3532 136.283" fill="#FFE5A6"/>
</svg>
