<svg width="25" height="30" viewBox="0 0 25 30" fill="none" xmlns="http://www.w3.org/2000/svg">
<path d="M17.138 2.74401C18.1389 3.12066 18.4955 4.70286 17.2126 5.15775C14.7198 6.04058 12.3119 7.12753 9.99399 8.41866C9.63098 8.62094 9.29811 8.63644 9.02095 8.53182C8.13915 8.20015 7.83595 6.6501 8.98256 6.01107C11.3015 4.7179 13.7094 3.63095 16.2012 2.75016C16.5465 2.62847 16.865 2.64147 17.138 2.74401Z" fill="#F1B722"/>
<path d="M10.3612 12.1164C10.4254 12.1415 10.4918 12.1727 10.5561 12.2077C12.0983 13.0637 13.6996 13.7979 15.3489 14.4221C16.2313 14.7572 17.1296 15.0606 18.0389 15.3373C18.0746 15.3479 18.1073 15.3595 18.1399 15.371C19.6077 15.9281 18.6123 18.227 17.0485 17.753C16.1922 17.4933 15.3519 17.2069 14.5257 16.8927C12.6061 16.1639 10.7586 15.2926 8.95397 14.2912C7.56192 13.5187 8.97498 11.5907 10.3612 12.1164Z" fill="#F1B722"/>
<path d="M5.57317 16.8725C5.84772 16.9756 6.08886 17.1801 6.24718 17.5126C7.36449 19.8677 8.08565 22.3902 8.40286 25.0092C8.54528 26.1805 7.32667 26.7626 6.4938 26.4513C6.12398 26.3128 5.83109 25.9971 5.76825 25.4762C5.47763 23.0638 4.81563 20.7952 3.78762 18.6295C3.22337 17.4427 4.601 16.5061 5.57317 16.8725Z" fill="#F1B722"/>
</svg>
