<svg width="176" height="180" viewBox="0 0 176 180" fill="none" xmlns="http://www.w3.org/2000/svg">
<path d="M45.2639 63.5619C61.3034 66.2553 36.8091 65.6393 40.4006 47.7718C42.5112 37.2923 54.1261 36.0603 63.224 36.9728C65.1736 37.1683 85.3914 40.6394 91.6723 43.2981C92.7204 43.7352 93.9432 43.1853 94.232 42.0995C97.4671 30.3101 100.631 20.8131 106.715 13.0978C121.644 -5.79062 151.068 8.30702 139.565 29.8842C133.66 40.9532 130.544 44.4033 134.239 56.8826C136.976 66.1145 145.492 71.9349 151.018 79.4453C158.806 90.0244 154.307 100.375 151.494 112.102C149.927 118.642 148.236 125.18 145.757 131.468C140.929 143.735 132.634 154.539 118.973 157.772C117.801 158.052 116.611 158.268 115.409 158.436C104.393 160.003 93.0396 158.277 82.2737 156.187C67.2469 153.274 52.5037 149.19 37.73 145.32C18.3995 140.244 26.39 119.454 40.4898 122.513L36.6685 121.691C18.3889 117.718 24.9095 90.6558 43.1848 94.6132L37.6669 93.4252C18.4938 89.2639 23.0424 59.8243 45.2475 63.5663" fill="#EC8724"/>
<path d="M73.6188 70.4192L73.6315 69.3482C62.4118 69.3241 50.7533 64.3723 50.633 64.3185L50.1903 65.298C50.3105 65.3519 62.1844 70.3837 73.6188 70.4192Z" fill="#231F20"/>
<path d="M73.658 99.9765L73.6179 98.9029C60.5298 99.6216 43.4853 93.7585 43.3067 93.6859L42.9242 94.7005C43.0986 94.7571 60.3425 100.704 73.658 99.9765Z" fill="#231F20"/>
<path d="M59.9308 126.731L59.8828 125.695C53.7913 126.111 40.8732 121.825 40.737 121.778L40.3476 122.765C40.8885 122.937 53.6125 127.158 59.9308 126.731Z" fill="#231F20"/>
</svg>
