<svg width="49" height="51" viewBox="0 0 49 51" fill="none" xmlns="http://www.w3.org/2000/svg">
<path d="M16.0826 7.3395C6.17947 12.8236 2.15805 24.6647 7.13698 33.7502C8.25861 36.0421 11.6509 39.5891 14.6601 41.6899C16.3015 43.1905 20.1588 44.9912 23.2501 45.7552C30.2534 47.8833 39.6094 44.3637 44.178 37.9247C48.4183 10.8592 35.8342 -2.81006 16.0826 7.36681" fill="#FFF2D7"/>
<mask id="path-2-outside-1_84_274" maskUnits="userSpaceOnUse" x="0" y="0" width="49" height="51" fill="black">
<rect fill="white" width="49" height="51"/>
<path d="M16.0826 7.3395C6.17947 12.8236 2.15805 24.6647 7.13698 33.7502C8.25861 36.0421 11.6508 39.5891 14.6601 41.6899C16.3015 43.1905 20.1588 44.9912 23.2501 45.7552C30.2534 47.8833 39.6094 44.3637 44.178 37.9247C48.4183 10.8592 35.8342 -2.81006 16.0826 7.36681"/>
</mask>
<path d="M7.13698 33.7502L10.7298 31.9919L10.6892 31.9089L10.6448 31.8279L7.13698 33.7502ZM14.6601 41.6899L17.3591 38.7377L17.1652 38.5605L16.9498 38.4101L14.6601 41.6899ZM23.2501 45.7552L24.4131 41.928L24.3122 41.8973L24.2098 41.872L23.2501 45.7552ZM44.178 37.9247L47.4403 40.2394L47.9843 39.4726L48.1298 38.5439L44.178 37.9247ZM16.0826 7.3395L14.1448 3.84022C2.61769 10.2236 -2.56698 24.3658 3.62917 35.6725L7.13698 33.7502L10.6448 31.8279C6.88308 24.9636 9.74125 15.4235 18.0204 10.8388L16.0826 7.3395ZM7.13698 33.7502L3.54417 35.5086C4.37079 37.1976 5.82597 39.0053 7.29106 40.5471C8.80768 42.1431 10.6093 43.7403 12.3704 44.9697L14.6601 41.6899L16.9498 38.4101C15.7017 37.5387 14.3025 36.312 13.0903 35.0363C11.8266 33.7064 11.0248 32.5947 10.7298 31.9919L7.13698 33.7502ZM14.6601 41.6899L11.9611 44.6421C13.221 45.7939 15.0191 46.8221 16.7062 47.6171C18.4594 48.4434 20.4468 49.1828 22.2905 49.6384L23.2501 45.7552L24.2098 41.872C22.9621 41.5637 21.4752 41.0207 20.1166 40.3805C18.6919 39.7091 17.7406 39.0866 17.3591 38.7377L14.6601 41.6899ZM23.2501 45.7552L22.0871 49.5824C26.6138 50.9579 31.622 50.4506 36.0309 48.7982C40.455 47.1401 44.6298 44.2005 47.4403 40.2394L44.178 37.9247L40.9157 35.6101C39.1576 38.088 36.3702 40.1276 33.2233 41.3071C30.0612 42.4922 26.8897 42.6806 24.4131 41.928L23.2501 45.7552ZM44.178 37.9247L48.1298 38.5439C50.3209 24.5582 48.387 12.8384 42.0713 5.97198C35.3215 -1.36643 25.0558 -1.7563 14.2505 3.81105L16.0826 7.36681L17.9147 10.9226C26.861 6.31306 32.7631 7.66936 36.1832 11.3877C40.0375 15.5781 42.2754 24.2257 40.2262 37.3056L44.178 37.9247Z" fill="#EC8724" mask="url(#path-2-outside-1_84_274)"/>
<path d="M26.8599 36.7631C26.5088 36.6818 26.2657 36.5195 26.1307 36.2217C25.8606 35.7072 25.7796 34.9762 25.7256 34.1639C25.6986 32.5123 25.9146 30.5627 25.8876 29.6692V29.3443C26.0497 25.635 26.1307 22.088 26.2658 18.3245C24.3482 20.274 23.0248 20.8967 22.2146 20.8967C21.5394 20.8967 21.2423 20.4635 21.2423 19.8678C21.1883 19.191 21.5934 18.4058 22.3226 18.0267C24.0781 16.8895 24.8884 15.3192 26.4548 13.8842C26.7249 13.6135 26.995 13.5051 27.4001 13.5051C28.7505 13.5322 29.1016 14.6694 29.1556 16.0502C29.1826 17.3499 28.9936 18.839 29.0746 19.7596C28.3724 32.6476 29.4527 36.8715 27.5622 36.8715C27.3731 36.8715 27.13 36.8443 26.8599 36.7631Z" fill="#EC8724"/>
</svg>
