<svg width="49" height="51" viewBox="0 0 49 51" fill="none" xmlns="http://www.w3.org/2000/svg">
<mask id="path-1-outside-1_84_280" maskUnits="userSpaceOnUse" x="0" y="-1" width="49" height="52" fill="black">
<rect fill="white" y="-1" width="49" height="52"/>
<path d="M32.9174 43.0367C42.8205 37.5526 46.842 25.7114 41.863 16.6259C40.7414 14.334 37.3492 10.7872 34.3399 8.68633C32.6985 7.18572 28.8412 5.385 25.7499 4.62105C18.7466 2.49291 9.39055 6.01252 4.82197 12.4515C0.58168 39.5172 13.1658 53.1863 32.9174 43.0094"/>
</mask>
<path d="M32.9174 43.0367C42.8205 37.5526 46.842 25.7114 41.863 16.6259C40.7414 14.334 37.3492 10.7872 34.3399 8.68633C32.6985 7.18572 28.8412 5.385 25.7499 4.62105C18.7466 2.49291 9.39055 6.01252 4.82197 12.4515C0.58168 39.5172 13.1658 53.1863 32.9174 43.0094" fill="#FFF2D7"/>
<path d="M41.863 16.6259L38.2702 18.3842L38.3108 18.4672L38.3552 18.5482L41.863 16.6259ZM34.3399 8.68633L31.6409 11.6385L31.8348 11.8158L32.0502 11.9661L34.3399 8.68633ZM25.7499 4.62105L24.5869 8.44825L24.6878 8.47892L24.7903 8.50423L25.7499 4.62105ZM4.82197 12.4515L1.5597 10.1369L1.01569 10.9036L0.870178 11.8324L4.82197 12.4515ZM32.9174 43.0367L34.8552 46.536C46.3823 40.1526 51.567 26.0103 45.3708 14.7036L41.863 16.6259L38.3552 18.5482C42.1169 25.4126 39.2587 34.9527 30.9796 39.5374L32.9174 43.0367ZM41.863 16.6259L45.4558 14.8676C44.6292 13.1785 43.174 11.3708 41.7089 9.82905C40.1923 8.23309 38.3907 6.63598 36.6297 5.40654L34.3399 8.68633L32.0502 11.9661C33.2984 12.8376 34.6975 14.0643 35.9097 15.3399C37.1735 16.6698 37.9752 17.7814 38.2702 18.3842L41.863 16.6259ZM34.3399 8.68633L37.0389 5.73413C35.7791 4.58236 33.9809 3.5542 32.2938 2.75911C30.5406 1.93288 28.5532 1.19349 26.7095 0.737874L25.7499 4.62105L24.7903 8.50423C26.038 8.81257 27.5248 9.35551 28.8834 9.99577C30.3081 10.6672 31.2594 11.2897 31.6409 11.6385L34.3399 8.68633ZM25.7499 4.62105L26.9129 0.793856C22.3862 -0.581706 17.378 -0.0743604 12.9691 1.57803C8.54503 3.23613 4.37016 6.17579 1.5597 10.1369L4.82197 12.4515L8.08425 14.7662C9.84236 12.2883 12.6298 10.2486 15.7767 9.06918C18.9388 7.88405 22.1103 7.69567 24.5869 8.44825L25.7499 4.62105ZM4.82197 12.4515L0.870178 11.8324C-1.32092 25.8181 0.613021 37.5379 6.92869 44.4043C13.6785 51.7427 23.9442 52.1325 34.7495 46.5652L32.9174 43.0094L31.0853 39.4536C22.139 44.0632 16.2369 42.7069 12.8168 38.9885C8.96254 34.7982 6.72457 26.1506 8.77377 13.0706L4.82197 12.4515Z" fill="#EC8724" mask="url(#path-1-outside-1_84_280)"/>
<mask id="path-3-outside-2_84_280" maskUnits="userSpaceOnUse" x="0" y="-1" width="49" height="52" fill="black">
<rect fill="white" y="-1" width="49" height="52"/>
<path d="M32.9174 43.0367C42.8205 37.5526 46.842 25.7114 41.863 16.6259C40.7414 14.334 37.3492 10.7872 34.3399 8.68633C32.6985 7.18572 28.8412 5.385 25.7499 4.62105C18.7466 2.49291 9.39055 6.01252 4.82197 12.4515C0.58168 39.5172 13.1658 53.1863 32.9174 43.0094"/>
</mask>
<path d="M41.863 16.6259L38.2702 18.3842L38.3108 18.4672L38.3552 18.5482L41.863 16.6259ZM34.3399 8.68633L31.6409 11.6385L31.8348 11.8158L32.0502 11.9661L34.3399 8.68633ZM25.7499 4.62105L24.5869 8.44825L24.6878 8.47892L24.7903 8.50423L25.7499 4.62105ZM4.82197 12.4515L1.5597 10.1369L1.01569 10.9036L0.870178 11.8324L4.82197 12.4515ZM32.9174 43.0367L34.8552 46.536C46.3823 40.1526 51.567 26.0103 45.3708 14.7036L41.863 16.6259L38.3552 18.5482C42.1169 25.4126 39.2587 34.9527 30.9796 39.5374L32.9174 43.0367ZM41.863 16.6259L45.4558 14.8676C44.6292 13.1785 43.174 11.3708 41.7089 9.82905C40.1923 8.23309 38.3907 6.63598 36.6297 5.40654L34.3399 8.68633L32.0502 11.9661C33.2984 12.8375 34.6975 14.0643 35.9097 15.3399C37.1735 16.6698 37.9752 17.7814 38.2702 18.3842L41.863 16.6259ZM34.3399 8.68633L37.0389 5.73413C35.7791 4.58236 33.9809 3.5542 32.2938 2.75911C30.5406 1.93288 28.5532 1.19349 26.7095 0.737874L25.7499 4.62105L24.7903 8.50423C26.0379 8.81257 27.5248 9.35551 28.8834 9.99577C30.3081 10.6672 31.2594 11.2897 31.6409 11.6385L34.3399 8.68633ZM25.7499 4.62105L26.9129 0.793856C22.3862 -0.581706 17.378 -0.0743607 12.9691 1.57803C8.54503 3.23613 4.37016 6.17579 1.5597 10.1369L4.82197 12.4515L8.08425 14.7662C9.84236 12.2883 12.6298 10.2486 15.7767 9.06918C18.9388 7.88405 22.1103 7.69567 24.5869 8.44825L25.7499 4.62105ZM4.82197 12.4515L0.870178 11.8324C-1.32092 25.8181 0.613021 37.5379 6.92869 44.4043C13.6785 51.7427 23.9442 52.1325 34.7495 46.5652L32.9174 43.0094L31.0853 39.4536C22.139 44.0632 16.2369 42.7069 12.8168 38.9885C8.96254 34.7982 6.72457 26.1506 8.77377 13.0706L4.82197 12.4515Z" fill="#EC8724" mask="url(#path-3-outside-2_84_280)"/>
<path d="M16.4065 33.3927C16.3795 32.1556 19.1864 28.7465 21.7234 25.5574C23.8016 22.9456 25.5829 20.8012 25.5829 18.0519C25.5829 16.0449 24.5303 14.6153 22.4791 14.6153C20.4279 14.6153 18.2418 16.2373 17.729 18.8766C17.648 19.2341 17.648 19.509 17.4051 19.7289C17.2162 19.9214 16.9463 20.0313 16.7304 20.0313C16.2446 20.0313 15.7588 19.6464 15.5699 19.0416C15.4619 18.6842 15.4619 18.4642 15.5429 18.1068C16.4875 13.7629 19.3213 11.9209 22.0473 11.9209C25.178 11.9209 28.2008 14.3127 28.3088 18.0792C28.3897 20.3062 27.4721 23.0004 24.9351 25.9697C23.5317 27.8392 22.1013 29.5163 19.8342 32.403C22.749 32.8154 25.0431 32.4855 27.85 32.0456C30.4949 31.6607 30.117 34.245 28.2548 34.6299C26.0687 35.0973 21.1566 35.4823 18.6736 35.1798C17.756 35.0699 16.4875 34.9598 16.4335 33.4203" fill="#EC8724"/>
</svg>
