<svg width="49" height="51" viewBox="0 0 49 51" fill="none" xmlns="http://www.w3.org/2000/svg">
<mask id="path-1-inside-1_84_286" fill="white">
<path d="M14.5784 8.44415C5.6832 12.912 1.14814 24.7067 5.94176 33.2414C7.64526 36.2725 10.2918 38.723 13.2095 40.6986C15.7343 42.4085 18.5177 43.8059 21.509 44.512C28.9263 46.2588 37.2917 43.2032 41.6873 37.1484C54.6613 19.2596 33.6287 -1.12393 14.5809 8.44661"/>
</mask>
<path d="M14.5784 8.44415C5.6832 12.912 1.14814 24.7067 5.94176 33.2414C7.64526 36.2725 10.2918 38.723 13.2095 40.6986C15.7343 42.4085 18.5177 43.8059 21.509 44.512C28.9263 46.2588 37.2917 43.2032 41.6873 37.1484C54.6613 19.2596 33.6287 -1.12393 14.5809 8.44661" fill="#F8D58B"/>
<path d="M5.94176 33.2414L4.19799 34.2208L4.19825 34.2213L5.94176 33.2414ZM13.2095 40.6986L14.331 39.0426L14.3308 39.0425L13.2095 40.6986ZM21.509 44.512L21.0495 46.4585L21.0505 46.4588L21.509 44.512ZM41.6873 37.1484L43.3058 38.3233L43.3063 38.3226L41.6873 37.1484ZM14.5784 8.44415L13.6807 6.65693C3.93801 11.5505 -1.24431 24.5312 4.19799 34.2208L5.94176 33.2414L7.68554 32.262C3.5406 24.8822 7.42838 14.2736 15.4761 10.2314L14.5784 8.44415ZM5.94176 33.2414L4.19825 34.2213C6.10511 37.6142 9.0169 40.2751 12.0882 42.3547L13.2095 40.6986L14.3308 39.0425C11.5666 37.1708 9.18541 34.9308 7.68528 32.2616L5.94176 33.2414ZM13.2095 40.6986L12.088 42.3546C14.7517 44.1585 17.7581 45.6816 21.0495 46.4585L21.509 44.512L21.9685 42.5655C19.2773 41.9303 16.717 40.6585 14.331 39.0426L13.2095 40.6986ZM21.509 44.512L21.0505 46.4588C29.2343 48.3861 38.4258 45.0453 43.3058 38.3233L41.6873 37.1484L40.0688 35.9734C36.1576 41.361 28.6183 44.1316 21.9675 42.5653L21.509 44.512ZM41.6873 37.1484L43.3063 38.3226C50.4257 28.5062 48.1972 17.8572 41.5702 11.0999C34.9977 4.39825 24.0503 1.45047 13.683 6.65951L14.5809 8.44661L15.4789 10.2337C24.1593 5.87221 33.252 8.33091 38.7143 13.9006C44.122 19.4146 45.9228 27.9018 40.0683 35.9742L41.6873 37.1484Z" fill="#EC8724" mask="url(#path-1-inside-1_84_286)"/>
<path d="M36.6804 17.5357C37.1956 18.8646 36.4745 19.7746 35.0793 20.6725C33.9538 21.3947 32.5201 22.1795 31.0009 23.5191C29.5106 24.8323 28.0577 26.4152 26.766 27.9727C25.6609 29.3098 24.6088 30.6899 23.6121 32.1097C23.1137 32.821 22.4168 33.8827 22.4168 33.8827C22.1666 34.269 21.8222 34.5853 21.4159 34.8016C21.0096 35.0179 20.5549 35.1271 20.0947 35.1188C19.6347 35.1161 19.1831 34.9958 18.7828 34.7693C18.3824 34.5428 18.0467 34.2177 17.8075 33.8249C16.6049 31.8064 15.678 31.0083 15.2518 30.7231C14.1119 29.9551 12.7733 29.8444 12.7733 28.0582C12.7733 26.639 13.971 25.4895 15.4481 25.4895C16.4917 25.5281 17.4608 25.9385 18.3203 26.5163C18.8692 26.8846 19.4506 27.3733 20.0549 28.0148C20.8648 26.9098 21.707 25.8288 22.5805 24.7734C23.9732 23.0943 25.6176 21.2924 27.3812 19.7372C29.1146 18.2086 31.1189 16.7774 33.2436 16.0215C34.6279 15.528 36.1664 16.2057 36.6804 17.5357Z" fill="#EC8724"/>
<path d="M16.0826 7.3395C6.17947 12.8236 2.15805 24.6647 7.13698 33.7502C8.25861 36.0421 11.6508 39.5891 14.6601 41.6899C16.3015 43.1905 20.1588 44.9912 23.2501 45.7552C30.2534 47.8833 39.6094 44.3637 44.178 37.9247C48.4183 10.8592 35.8342 -2.81006 16.0826 7.36681" fill="#FFF2D7"/>
<mask id="path-5-outside-2_84_286" maskUnits="userSpaceOnUse" x="0" y="0" width="49" height="51" fill="black">
<rect fill="white" width="49" height="51"/>
<path d="M16.0826 7.3395C6.17947 12.8236 2.15805 24.6647 7.13698 33.7502C8.25861 36.0421 11.6508 39.5891 14.6601 41.6899C16.3015 43.1905 20.1588 44.9912 23.2501 45.7552C30.2534 47.8833 39.6094 44.3637 44.178 37.9247C48.4183 10.8592 35.8342 -2.81006 16.0826 7.36681"/>
</mask>
<path d="M7.13698 33.7502L10.7298 31.9919L10.6892 31.9089L10.6448 31.8279L7.13698 33.7502ZM14.6601 41.6899L17.3591 38.7377L17.1652 38.5605L16.9498 38.4101L14.6601 41.6899ZM23.2501 45.7552L24.4131 41.928L24.3122 41.8973L24.2098 41.872L23.2501 45.7552ZM44.178 37.9247L47.4403 40.2394L47.9843 39.4726L48.1298 38.5439L44.178 37.9247ZM16.0826 7.3395L14.1448 3.84022C2.61769 10.2236 -2.56698 24.3658 3.62917 35.6725L7.13698 33.7502L10.6448 31.8279C6.88308 24.9636 9.74125 15.4235 18.0204 10.8388L16.0826 7.3395ZM7.13698 33.7502L3.54417 35.5086C4.37079 37.1976 5.82597 39.0053 7.29106 40.5471C8.80768 42.1431 10.6093 43.7403 12.3704 44.9697L14.6601 41.6899L16.9498 38.4101C15.7017 37.5387 14.3025 36.312 13.0903 35.0363C11.8266 33.7064 11.0248 32.5947 10.7298 31.9919L7.13698 33.7502ZM14.6601 41.6899L11.9611 44.6421C13.221 45.7939 15.0191 46.8221 16.7062 47.6171C18.4594 48.4434 20.4468 49.1828 22.2905 49.6384L23.2501 45.7552L24.2098 41.872C22.9621 41.5637 21.4752 41.0207 20.1166 40.3805C18.6919 39.7091 17.7406 39.0866 17.3591 38.7377L14.6601 41.6899ZM23.2501 45.7552L22.0871 49.5824C26.6138 50.9579 31.622 50.4506 36.0309 48.7982C40.455 47.1401 44.6298 44.2005 47.4403 40.2394L44.178 37.9247L40.9157 35.6101C39.1576 38.088 36.3702 40.1276 33.2233 41.3071C30.0612 42.4922 26.8897 42.6806 24.4131 41.928L23.2501 45.7552ZM44.178 37.9247L48.1298 38.5439C50.3209 24.5582 48.387 12.8384 42.0713 5.97198C35.3215 -1.36643 25.0558 -1.7563 14.2505 3.81105L16.0826 7.36681L17.9147 10.9226C26.861 6.31306 32.7631 7.66936 36.1832 11.3877C40.0375 15.5781 42.2754 24.2257 40.2262 37.3056L44.178 37.9247Z" fill="#EC8724" mask="url(#path-5-outside-2_84_286)"/>
<path d="M19.5459 32.9751C19.5459 32.9751 19.6266 32.4881 19.9224 32.2446C19.9224 32.2446 20.4873 31.947 20.837 31.947C20.8639 31.947 21.4288 32.1094 21.6978 32.3529C22.9352 33.5975 24.4953 34.1656 26.0017 34.1656C27.508 34.1656 29.0951 33.5162 30.3056 32.3798C30.9781 31.6493 31.274 30.7565 31.274 29.8366C31.1933 28.3215 30.3056 26.7523 28.9068 25.9947C28.3688 25.8324 27.8577 25.7782 27.3198 25.7782C26.2976 25.7782 25.2754 26.0489 24.2264 26.2654C23.5539 26.3465 23.0966 26.0488 22.8007 25.4806C22.6393 25.1289 22.6124 24.8855 22.7738 24.5608C22.9621 24.1009 23.3387 23.8303 23.7421 23.695C27.1046 22.7481 28.6647 20.2589 28.6109 18.4191C28.5571 17.4722 28.073 16.7146 27.0508 16.5523C24.7105 16.3629 22.3165 17.878 21.4288 19.7448C21.2405 20.1507 20.8639 20.3402 20.5142 20.3402C20.1376 20.3402 19.7341 20.1507 19.492 19.799C19.2769 19.5014 19.2231 19.2579 19.2768 18.9332C19.3844 17.0664 21.1598 15.93 22.6393 15.0372C24.1187 14.2526 25.4637 13.9009 26.5935 13.9009C29.3372 13.9009 31.0857 15.8758 31.1394 18.365C31.1663 19.9072 30.6015 21.6929 29.2834 23.3704C32.1885 24.3444 33.8025 27.077 33.9101 29.8097C33.937 31.6224 33.3183 33.4351 31.8119 34.7067C29.8483 36.303 27.7501 36.8712 25.8941 36.8712C22.3434 36.8712 19.5997 34.7067 19.519 32.921" fill="#EC8724"/>
</svg>
