<svg width="382" height="193" viewBox="0 0 382 193" fill="none" xmlns="http://www.w3.org/2000/svg">
<mask id="path-1-inside-1_108_28" fill="white">
<path d="M50.3021 190.888C23.1329 188.051 2.32782 166.548 1.74395 140.521L0.0119078 61.0137C-0.552495 35.1538 19.007 12.8161 45.8453 8.83057C66.8061 5.71627 88.4286 5.06746 109.681 4.4928C162.657 3.06541 215.633 1.65654 268.629 0.247688C295.097 -0.456738 323.571 -0.623575 345.368 13.6874C365.122 26.6637 375.554 49.6502 378.123 72.3772C379.641 85.7798 381.548 120.426 381.996 151.236C382.171 163.415 376.488 175.149 366.251 182.453C364.324 183.843 362.223 185.067 359.984 186.123C349.436 191.073 337.194 191.258 325.439 191.351C253.838 191.815 182.236 192.278 110.654 192.76C90.6083 192.89 70.2509 192.964 50.3411 190.888"/>
</mask>
<path d="M50.3021 190.888C23.1329 188.051 2.32782 166.548 1.74395 140.521L0.0119078 61.0137C-0.552495 35.1538 19.007 12.8161 45.8453 8.83057C66.8061 5.71627 88.4286 5.06746 109.681 4.4928C162.657 3.06541 215.633 1.65654 268.629 0.247688C295.097 -0.456738 323.571 -0.623575 345.368 13.6874C365.122 26.6637 375.554 49.6502 378.123 72.3772C379.641 85.7798 381.548 120.426 381.996 151.236C382.171 163.415 376.488 175.149 366.251 182.453C364.324 183.843 362.223 185.067 359.984 186.123C349.436 191.073 337.194 191.258 325.439 191.351C253.838 191.815 182.236 192.278 110.654 192.76C90.6083 192.89 70.2509 192.964 50.3411 190.888" fill="white"/>
<path d="M1.74395 140.521L-1.48232 140.591L-1.48227 140.594L1.74395 140.521ZM0.0119078 61.0137L3.23817 60.9434L3.23817 60.9433L0.0119078 61.0137ZM45.8453 8.83057L46.3194 12.0226L46.3196 12.0226L45.8453 8.83057ZM109.681 4.4928L109.594 1.26694L109.594 1.26694L109.681 4.4928ZM268.629 0.247688L268.715 3.47358L268.715 3.47358L268.629 0.247688ZM345.368 13.6874L347.14 10.9902L347.139 10.9898L345.368 13.6874ZM378.123 72.3772L374.917 72.7397L374.917 72.7404L378.123 72.3772ZM381.996 151.236L385.223 151.189V151.189L381.996 151.236ZM366.251 182.453L364.377 179.826L364.37 179.831L364.363 179.836L366.251 182.453ZM359.984 186.123L361.355 189.045L361.362 189.042L359.984 186.123ZM325.439 191.351L325.46 194.578L325.464 194.578L325.439 191.351ZM110.654 192.76L110.675 195.987L110.676 195.987L110.654 192.76ZM50.3021 190.888L50.6372 187.678C24.9509 184.997 5.51467 164.721 4.97017 140.449L1.74395 140.521L-1.48227 140.594C-0.859036 168.375 21.3149 191.106 49.9671 194.097L50.3021 190.888ZM1.74395 140.521L4.97022 140.451L3.23817 60.9434L0.0119078 61.0137L-3.21436 61.084L-1.48232 140.591L1.74395 140.521ZM0.0119078 61.0137L3.23817 60.9433C2.71166 36.8194 20.9776 15.7859 46.3194 12.0226L45.8453 8.83057L45.3713 5.63854C17.0364 9.84636 -3.81665 33.4883 -3.21436 61.0841L0.0119078 61.0137ZM45.8453 8.83057L46.3196 12.0226C67.0583 8.94126 88.4905 8.294 109.768 7.71865L109.681 4.4928L109.594 1.26694C88.3666 1.84092 66.5539 2.49128 45.3711 5.63858L45.8453 8.83057ZM109.681 4.4928L109.768 7.71866C162.744 6.29129 215.719 4.88243 268.715 3.47358L268.629 0.247688L268.543 -2.9782C215.548 -1.56935 162.571 -0.160472 109.594 1.26694L109.681 4.4928ZM268.629 0.247688L268.715 3.47358C295.371 2.76415 322.782 2.71879 343.597 16.385L345.368 13.6874L347.139 10.9898C324.36 -3.96594 294.824 -3.67763 268.543 -2.9782L268.629 0.247688ZM345.368 13.6874L343.596 16.3846C362.31 28.6774 372.418 50.6391 374.917 72.7397L378.123 72.3772L381.33 72.0147C378.69 48.6613 367.935 24.65 347.14 10.9902L345.368 13.6874ZM378.123 72.3772L374.917 72.7404C376.417 85.9904 378.322 120.517 378.769 151.283L381.996 151.236L385.223 151.189C384.775 120.336 382.865 85.5693 381.33 72.014L378.123 72.3772ZM381.996 151.236L378.769 151.282C378.93 162.43 373.73 173.153 364.377 179.826L366.251 182.453L368.125 185.08C379.247 177.145 385.413 164.4 385.223 151.189L381.996 151.236ZM366.251 182.453L364.363 179.836C362.61 181.101 360.681 182.226 358.607 183.205L359.984 186.123L361.362 189.042C363.764 187.908 366.039 186.586 368.14 185.07L366.251 182.453ZM359.984 186.123L358.614 183.202C348.81 187.802 337.296 188.03 325.414 188.124L325.439 191.351L325.464 194.578C337.092 194.486 350.062 194.344 361.355 189.045L359.984 186.123ZM325.439 191.351L325.418 188.124C253.817 188.588 182.215 189.051 110.633 189.533L110.654 192.76L110.676 195.987C182.258 195.505 253.858 195.041 325.46 194.578L325.439 191.351ZM110.654 192.76L110.633 189.533C90.5651 189.663 70.3813 189.733 50.6758 187.678L50.3411 190.888L50.0064 194.097C70.1205 196.195 90.6516 196.116 110.675 195.987L110.654 192.76Z" fill="#EC8724" mask="url(#path-1-inside-1_108_28)"/>
</svg>
